/* XPM */
static char *_3acd64985c94173da79d5ff92fd0f44Opiy1TE7P8SFd7xF[] = {
/* columns rows colors chars-per-pixel */
"64 64 10 1 ",
"  c #104024",
". c #366C56",
"X c #0E3C21",
"o c #09331A",
"O c #0B381D",
"+ c #2D624A",
"@ c #1A4B30",
"# c #21543B",
"$ c #41755D",
"% c #4B7F67",
/* pixels */
"oooooooooooO   XOXXXX   XXX       .$$$$$$$$.$+OooooooooOXOOOX X ",
"ooOoooooooO   OooOXXX  XOoO      @............XooooooooOXOoooOXX",
"ooOoooooOX    OXXXOOOXXoooOOoXXX @+..........+OoOOoooooOOOoooooo",
"OooooooOXXX  OOOXXOoOXOOOXoooX    ........+..+OXXOooooooooOOXXXX",
"ooOoooooOoOOXOoX XXXO XOXOoooO    +.........+#O@@@@@@## ooX XOOO",
"OoooooooooooOXXX XXOO  OooooooX    @@#@###@@ OX......$$+oX   Ooo",
"ooOooooooOOOOOX  OOoO XoooooooO   XXOoooooOoooX........+O  XOOOO",
"ooOoooOooO XOoOX  OoOX OooooooX     OoooooooOOO+.......+O XX    ",
"ooOoOoooO  XOOO  XOOO  @@XOooo    X XOoooooOOX +.......#O       ",
"ooOo XOoOOOOX    XOX       oO@   XX XOooOXXX  @#.......#OX    XO",
"oOooOOOoooooX           XO  @   XOXX XOOXOX    @.......@OXXXOOoo",
"ooOoooOooooO   @            XOOOOOOXX XXXOOOX X ##+++++ OXOooooo",
"OOOoooooooo#$.$$$$..+#            @    XX OOOXXOOXXX  XOOOoooooo",
"oooOOoOOOOo#.........+@            XXX XoXX    XXOXXOOoooooooooo",
"oOoOXoO @@ #..........@X                OO      XO  XOOOoooooooo",
"oooO O ..$+@..........@  OX             XOXX  XOOO X XXOoooooooo",
"OOOXXO ...# .......... XXooO           XX X   XoXX   XXXOooooooo",
"  XXXXX+..#X#+++++++++ OoooO      X    OOX XXX   XXX XX XOoooooo",
"          XoOXXXX      XOoOX     XOX   XXXXOOOXOOOOX  XXOOoooOOo",
"        oOoOXXOOOX XO   XXX   X XXXX  XXXXOOOOXOX X    XX OOX  X",
"XO    XOoooX  OXX   O            XX  XXOX   XOOO   XX     XX XXX",
"OoX   XOoooX XOXXX  X            X    XX    XOXXX      OOXOOXOX ",
"XX     XOooO XX     X        X  X            XX    XX XoooOXX   ",
"        XOOX X      XXOO                     XOOXXOOoOOooO      ",
"         XX  XXX   XOXXOX                    @#@@@@@@@@@XX  X   ",
"X  XX  XXXX   OO   XXXXO   X        X        $%$$$$$$$$%+  XOO  ",
"XX     X XoX  X         X  X     XOoooO      +..........+  X OO ",
"     X   XX        X#... X    XOoooooooOX    +..........#X@   X ",
"$$%%$#O XXXOX XX  XX+...@X XOoooooooooooo    +..........#@%$$$$$",
"....$$XOOOXXOXOX   X@... X Oooooooooooooo    +........++@@......",
".....+XoOO  XXOOX    @#@  XoooooooooooooO    ###@@@@@@#@X ......",
".....+ X XX X   @@  OOX    OooooooooooOO     OXXXXXXooooO ......",
".....+X      @  @ X XO     Xoooooooo     XX        XooooO +.....",
"+....#   X    OO  OX X       ooooooo@   @@#######@@   OOX +.....",
"@@@##@XOoOX   XOOXX         @  ooooo@ #%%%%%%%%%%%$$$%@OXX@@#@@@",
"OoOXXXXXXXXOOX XO               OoO @ +.+.............@oOoOOOXOO",
"OooXOOX XOOOO   XX  OX          @     #..............+@ooO XXXXO",
"OooOOoOX XX   ++++++#+#@X             #...............@oOoOOoooo",
"oOOoooo .............$..#X            #............... ooooooooo",
"XOOoooO $.$..+..........+            X#.............++ ooOXOooOX",
"  XOOOO .+...#+.........+             @............+++ OoO  OoO ",
"        +....#+.........#            X #++++.+.++++++@OOXX  XOOO",
"   XOOX #++.+@+........+#X  X   @ @       @ @@@@   XXOooX     Oo",
" XXXOooOX    X @@@@@@@#@ OXXXX +%$$$$$$$$%$$#X XXXXOOOoooOXX Ooo",
"OOoOXXOoooo@$..............++@X+.......$...$$  X    XOOoooooXOoo",
"oXXX XOoOOX$$..+.....$..$.$$$$ #...$........+   XX  XOOOoooOoooo",
"oXX   XOOOX.+................+@@............+       OOOOOooooooo",
"ooO   OOXX ++.................@@............#X     XOOooXOoOOooo",
"oo  XoOXXXX+.................+@@+......+....#      XooOooXXXOooo",
"ooOOOOOXX X+.................+@X@###@@  @### @@@#@##@@@@@ @ Oooo",
"oOoXX     X+................++@OOOOOXXX   XO@$.....$$$$.$..$#ooo",
"X   X     O+...............+.+@....+...$$$$@#...............+ooo",
"X        XX#+..........++..+.+#$..+.......$#@...............#ooo",
"X X       X@##++#############@@...........$@ ...............#ooo",
"X    XXX  X        XOOOXXOXOOO ...........$@X+..............#ooo",
"X            X     XXXXXXOXXXX +...........@@##+............@ooo",
"X  OoOX X          X          X+........... #.#@+........... ooo",
"OOXOoooooX     X      XX   XXOO#........... @+.+@#+++++++++#XoXX",
"XXOooooooO     X X   OOXXXOoooo#..........+ O @@ O        XOOX  ",
"  OooooooO           XXOOXOoooo@#+++....+++XoooOXXOOXOOXXXXXX   ",
" XXoO OooX           OoOXXOOoooX @@@@#####@OXOOX XOOOOOOX XOOOOO",
"   OX  OO           XooOXXooooooOoOOOXOOOOOX XOX  OoooOOXXOoOXOo",
" XOOOX XXX       X  XOOX  XOOOXXXXXXXXXXX         OOXXXXXXOooXXO",
" XXXX XXX                                                 XXX  X"
};
