/* XPM */
static char *_c69cad97ba7441d89fb21108cb25dc0MIRIcAbzwh0EKPGF[] = {
/* columns rows colors chars-per-pixel */
"64 64 9 1 ",
"  c #3C2271",
". c #492C80",
"X c #7157B2",
"o c #462A7C",
"O c #422677",
"+ c #6A50A8",
"@ c #52378C",
"# c #5D4299",
"$ c #7D63B9",
/* pixels */
"           o...oOoOoo...oo......o#+XX+++++++@OO        OO  o.ooO",
"          O..OO  OOOoooO  o......+XXXXXXXXXX$o         OO   OooO",
"         o...OOOOOOOOoO   OOOOOo.+XXXXXXXX+X+O        OOO      O",
"       Oooo.o OOoO  OO  O   O....+XXXXXXX++X+OOoO          OOOO ",
"       OOO oO OooOO OOOoo    ....+XXXXXXXXXX#Oo..oo...O  OooOOOo",
"           OOOO.ooO ooO      O..o@#########@oO+X++XXX$# Oo.o   O",
"            Ooo.OO  o.O       ..ooOO OOO O   O+X+XXXXX+Oooo   O.",
"         ooO  O.oO  O.O       ...o.O          +XXXXXXX+OoOoo.oo.",
"        O.oO  o..O  Oo@.o    ....o.O        oO#XXXXXXX#O.......o",
"   OoO  OOoOoo...OOo......  o.oooooO    OOOo..#XXXXXXX@Ooo...oO ",
" O OOO     O............Oo..@.ooOOO.oO OOOo...@XXXXXXX@OOOooO   ",
" O         Ooo.........ooo.oOOOOOOOooOOo  Oo.o.##+++++@Oo       ",
"O     O   O+X+XX++++@....oooooo.......oo.  OOOOo...@@.O         ",
"    O OOO .XXXXXXXXX+@o...........ooooO oooo.oOOOOO             ",
"   oO O..o.+XXXXXXXXX#o...............o  ......oO.oo            ",
"   oo #+++@+XXXXXXXXX#o.Oo.............o Oo..oOOOoOoOoO         ",
"  OoO #XXX.+XXXXXXXXX#oo OOo..........oOoOo.oO OO...Ooo         ",
"ooOoOO#XX+o#+++++++++@     o.....oo...o O.ooooooooo.oo.oO       ",
".oo..o.@@@ O.......@@.OO  Oo.....OO...OOooO  ooOOOO.oooO    OO  ",
"......o    Oo OOOoo o..oOOo..o.ooOo...oooOO  oOOooo.oooooO O.oOo",
"Oo.o..O   O..oOoo..Oo...o....o..ooo.ooOo.oooO Oo..oo...o.oo.oOo.",
" O...oO   O.oOO.o..oo...........ooo..oOo....OOOo..oo.oOOoOOo Oo.",
"Oo....o    o.Oo.....o.......oo.oo....oo.....oo....oO.o   Oooo...",
".o.....oO O.oo......ooOo............o.......oOOooOO OO  Oo......",
".....oo.oOo.ooo....OOoOO...................o...@......oOo..oo...",
"..oo...oooo..oOo..oOOOOo..Oo..........o....oX$$$$$X$X$$#..oOO.o.",
"oooo...ooOO..Ooo....oooo..Oo....oO   O.....o++XXXXXXXXX+o.ooOOo.",
"Ooooo..o.Oo..o.o..o@#++@Ooo..oO       Oo...o+XXXXXXXXXX#O..oOOo.",
"X$$X+ooooOOOooo..OO@XXX#O..o            o..o+XXXXXXXXX+#@$$XXXXX",
"XXX$$# O OO OoO..oo.+XX@OoO             o..o+XXXX+XXX++@@XXXXX$X",
"XXXXX@   o.OOOOOo..O@##.o.              ....#####@@@###o.XXXXXXX",
"XXXXX@OooOooo.o.@@.O o.o..O            ....oOOOOOoO     .XXXXXXX",
"XXXXX@Oo.oo....@.oooOo....o         ....oo.....o.oO    O.+XXXXXX",
"+XXX+@..oo.o.O ooOOoo......o       ..oo..@@@@@@@..ooO   .+XXXXX+",
"@@###.oO Ooo.oO OOo...........     ..@$$$$$$$$$$$$$$$@OOO@####@@",
"  OoooOOOoOOO.oOo...o..........   O@o#X+XXXX$XXXXXXXX@   OOOOO O",
"  OoOO..OOOOo.oOO.oOOo..............o#XXXXXXXXXXXXXX+@   ooooOOo",
"  OO  ooOOOo.@########@.............O#XXXXXXXXXXXXXXX@         O",
" O     #+++X++XXXXXXXXX#.o..........o@XXXXXXXXXXXXXX+@          ",
"O      +XXXX++XXXXXXXXX+............o@XXXXXXXXXXXX+++.  OoO   Oo",
".oO OOO#+XXX+#XXXXXXXXX+............o@XXXXXXXXXXXX+++o  O.oO  o.",
"....o.o#XXXX##XXXXXXXXX+............o.#++++++++++++##OOOo..O  OO",
"...OOOo@++X+#@XXXXXXXX++oo..o.o....ooOo..@@@@@@@....O  O....o   ",
".ooO   O..@..o@@@@@@@##@OOoooo#$$$X$XX$X$XX@o.oOoOO     Ooo.O   ",
"O OOoOO   O+X++++++++++++++#@o#XXXXXXXXX$X$$..o.oo.O       o    ",
" Ooooo  O #$XXXXXXXXXXXXXX$X$@@XXXXXXXXXXXX+..ooOooOOO          ",
"Ooo..o  O #X+XX+XXXXXXXXXXXX+@.XXXXXXXXXXXX+......o   O         ",
" Oo..o OoO#++XXXXXXXXXXXXXXX+#@+XXXXXXXXXXX#o.....o    oO O     ",
" O..O OOOO@XXXXXXXXXXXXXXXXXX#.+XXXXX++XXXX#o..o.oO  O  ooo     ",
"  OO  OOoO@XXXXXXXXXXXXXXXXX+#O@####@@@@###@.@@@@@@@@@@....     ",
"  Ooo....O@XXXXXXXXXXXXXXXX++@ OOOOOOOOOOOO.$XXXXXXXXXXXXX$@    ",
"ooooo....O@XXXXXXXXXXXXXX+++X@#X+++++XX$$$@#X+XXXXXXXXXXXXX#    ",
"ooooo...oO@+XXXXXXX+XX+++X+++@$XX+XXXXXXX$#@XXXXXXXXXXXXXXX#    ",
"ooo..o...O.##+++#############.XXX+XXXXXXXX#.+XXXXXXXXXXXXXX#    ",
".....oo..oo.......oOOOOOoOOOOO+XXXXXXXXXXX#O#XXXXXXXXXXXXXX@    ",
"o..o.....oooo.oooooooOOOOOOOOo+XXXXXXXXXXX@.##+XXXXXXXXXXXX@    ",
"..o  O.oo.........o.........oO#XXXXXXXXXXX.@+#@#+XXXXXXXXX+.    ",
"OOO      .....oo.....oo.ooooO @XXXXXXXXXXX.@+X+@#++++++++##O OO ",
"OO       o....oooo..OOoooO    @+XXXXXXXXX+. .@@.O.........O o..o",
".o       o......oo..oOOOOO    o#+++XXXX+++o   OoOOOoOOOooooo....",
"oo  OO   ...........O  Oo O   O.@@@@####@@OOO ooo  OO  o.OOOOOOO",
".oOO..o o..........o   OO         OOOOOOOOOoOOooo     OOoO Oo   ",
".oO OooOOo......oo.oOOoo.oOOOOooOoOo.oOooo...oo.oOOOooOoO   oo  ",
"oooOOooOo............................................oooooOOoooO"
};
