/* XPM */
static char *_fd2395f6a534b18b4706d82cde2d1a0jHFNvJuUJkNDR9tK[] = {
/* columns rows colors chars-per-pixel */
"64 64 11 1 ",
"  c #2F323C",
". c #272A33",
"X c #575F70",
"o c #30353E",
"O c #2B2E38",
"+ c #404653",
"@ c #505766",
"# c #23262C",
"$ c #5E6574",
"% c black",
"& c #6A717E",
/* pixels */
".........OO oooo  oo ooo    oooo  oooooooooo      OOOO   .O o O%",
"...........Oo  OO OO oo OO ooooo @X$X$X$XXXX+..........OO..    %",
"..........OooO...OOO   ...O   O o@@XXXXXXXXXXO.........O....OOO%",
".........Ooo O.O O.OOO.....#OOO o@XXXXXXX@XX@..O...............%",
"........     ..O O..OO.OO.##.oo o@XXXXXXXXXX+OOO.#####....OOOOO%",
"...........O ..  O .O OOO###.    +@XXXXXXX@@o.+++++++@ .. oO...%",
"............O    OO. oO######.o  ooooooooooO.o$XXXX$$$+.   O..O%",
"..........O...O  O..Oo.######.ooo  .#......##oX@XXXXX$+O O.OOO %",
".........OoO..O   ... oO#####Oo o oO.........O@XXXXXXXoO       %",
"....O...O  OOOO  O.O  ooo ###o oo  O........oo@XXXXXXXoOooo   O%",
"....  O.....      Ooooo O  .ooo OO O...OO Oooo+XXXXXXXoOOoo O..%",
".O..........O           OOoo OOO.OO  O.O..Oo  +@XXXXX@ OOOO....%",
"..........#o+++++++oo       OOOOO   o O O..OOO o++++++.O.......%",
"........#.#@$X$$$$$$@o       oooooooo OOoOOO O....O...#........%",
"....O..OOO.@XXXXXXXXX@       oooo    o .O  ooo O   O.#.........%",
".#.O .O+++o+XXXXXXXXX@       ooooooooo ..  oo  O.  O.O.........%",
"...O .o$$$++XXXXXXXXX@  O.   ooooooooo  OO o O..O     .........%",
"OO.OO.oXXX++XXXXXXXXX+OO...O oooooooooO.     OO  oo O  O.......%",
"   O   +@+o ++++++++++O...O  ooooOOoooO.O O..  OOO o  OO.......%",
"o  ooo O.......#.OO.O  OO.       OO  o   OO.O .OOO    OOO..O O.%",
"   ooo O...Oo .OOooOOoo     o    O    O  OOOO.O          OO    %",
"..O  oO....  O. O oOOo          OO   O.O    OOO   O   O  O OOO %",
".. ooo O...OoOO   o     oooo                O        O....OO   %",
"   oooo O..    ooooo  O          oo    ooo   O    O.O...O      %",
"oo ooo   OO  O ooooOOO..  o o oooooo   ooo   .O OOOOOO..       %",
" o   o   O oo OOoo OOO.O  O o o oooo   ooo  @$XXXXXXXX@o   O   %",
"     ooO O. oOO oo   OO   O  o o O...O ooo oXXXXXXXXXX$+  OO.  %",
"OOOO    oOOoo    o o++++.     OO.#####  oo o@XXXXXXXX$XoO  O.. %",
"@@@@@oO   O      OOoX$$@O o O.#########.oo o@XXXXXXXXXXo+X@@@@@%",
"$$$$&X.OO.... O o   @XX+O O############. ooo@XXXXXXXX@@ @$$$$$$%",
"XX$XX@O..O  .O.O   O+@@o o.############.ooo +@@+++++@++.+XXXXXX%",
"XXXXX@OOO   O   oooO.Oo  oO############oo o  O  O OOOO..+XXXXXX%",
"XXXXX@    Oooooo+o  .Ooooo ########Ooooo          O#...O+XXXXXX%",
"XXXXX+oo  ooo . oO. O ooooo .######oo   oooooooo OO.....+@XXXXX%",
"+++@@+  ..  o O.OOO ooooooooo .####ooo$&&&&&&&&$$$$$XOO.o++@+++%",
"O.O o OOOOOOO  .O  oooooooooooo.## o +$XX$X$$$X$$XXXX ...OOO ..%",
"...OO. o OO.O  OO  OO   oo   ooo ooo +X@XXXXXXXXXXXX@ #.O O OOO%",
"...O..O O.OO o+++++++++   o  ooooo o +XXXXXXXXXXXXXX@ .........%",
".......o@@@@@@$X$$$$$$X+     oooooooO+XXXXXXXXXXX$XX@O.........%",
"O.....#+$X$XX@XXXXXXXXXX+ ooooooooooO+XXXXXXXX$XXXX@@O..OO....O%",
"o O..O.oX@XXX+XXXXXXXXXXo ooooooooooO+XXXXXXXXXXXX@@+... oO..O %",
"ooo   oo@XXX@+XXXXXXXXXXo oooooooooo o+@@@@X@X@@@@@++.OO o O..O%",
"ooo OO o@@XX@o@XXXXXXXX@o o    ooo   O ooo+o++ooooo O.. ooooO..%",
"o   .... oooo o+o+o+++++OO O  +&$$$$$$$$$$X+     OO.....OO  ...%",
"O..O OO....+X@@@@@@@@@@@@@@@+ +XXXXXXX$$$$$Xoo    oO......OO...%",
".OO   O..O &$XX@XX$X$X$$$$$$$+oXXXXXXXXXXXX@oo  O  OOO.........%",
".     O.OOo$@XX@XXXXXXXXXXXXX+oXXXXXXXXXXXX+      O...O........%",
"..O   O.OOo@@XXXXXXXXXXXXXXXX+o@XXXXXXXXXX$+O     O.... ..O....%",
".. o ..OOO @XXXXXXXXXXXXXXXXX+o@XXXX@@@XXX@+O     ...... OO....%",
"...OO.OO   @XXXXXXXXXXXXXXXX@+Oo++++oooo+++oo++++++++++oooo....%",
"O..O   oo  @XXXXXXXXXXXXXXX@@+.OOOO  oooo O+$XXXXXXXX$X$$$X ...%",
"O   O ooo  @XXXXXXXXXXXXXX@@X+@$X@@XXX$$&&o+XXXXXXXXXXXXXXXo#..%",
"Oo       O +@XXXXXX@X@@@@X@@@o$X@XXXXXXXX$++XXXXXXXXXXXXXXXo...%",
"OoO    o  O++++++++++++++++++ XXX@XXXXXXX$+oXXXXXXX$XXXXXXXo#..%",
" oooo   o O  ooooOOO........#O@XXXXXXXXXX$oO+XXXXXXXXXXXXX@ #..%",
"Ooo O  oo o            OOOOO O+XXXXXXXXXXXo+++@XX$XXXXX$XX@O...%",
" oo.#.OO. ooooo              O+XXXXXXXXXXX +X+++@XXXXXXXXX+....%",
"OOO.##### oooo       OO   OOO#+XXXXXXXXXX@ o@X@o++++@@@+++o.O O%",
"o .######Ooooo      OO OOO....o@XXXXXXXXX@O.OooO.O  OO O O.Oooo%",
"ooO######Oooooooo    OO.OO....O+++@@@@@@@+.#..O O.O ..O   O    %",
"o O#Oo.#.oo ooooooooO..O ......ooooo++++oo.OOO  O......  ......%",
"oo .O oOOoooooooooo ...OOO........O.O...OO oOO o .....OOO..O ..%",
"o OO.O OOO    ooooo     oo          o   oooooooo OO   O O..OoO.%",
"   OOooooooooooooooooooooooooooooooooooooooooooooooooooooooooo %"
};
