/* XPM */
static char *_04d5db605de4635d0b0e72edf1d7527KFM72KsSgsOufk1S[] = {
/* columns rows colors chars-per-pixel */
"64 64 9 1 ",
"  c #5F4511",
". c #523A09",
"X c #59400D",
"o c #887243",
"O c #836D3D",
"+ c #664E1C",
"@ c #7A6334",
"# c #715929",
"$ c #917B4B",
/* pixels */
"....X..XXXX                                       XXXXX  XX    .",
"...........    XX XX    XX       @oooooooOOO@X.........XX..X X X",
"..........   X...XXXX X...       OOooooooooo$ .........XX....XXX",
"........X    XXX X.XX ....X.XXX  OoooooooOOoOX..X...............",
".......X X  X.XX X..XX..X...X    @oooooooOOo@XXXX.........XXXXXX",
"...........XX..  XX.X X X...X    @OoooOooOOO#.+#++###@+..X  .XXX",
"............X X XXX.  X......X    +++++++++ .Xooooooo$O.X  X...X",
".........XX..XX X...X X.......    XX.....X....OoOoooooOX XX.X.X ",
".........  X..X  X..X  ......X     X..........@ooooooo@X X      ",
"....X...X  X.XX  X.X  +++X...+     X.......X  #ooooooo#X       X",
"...X X....XX     XX       X.+   XX X....X X ++#ooooooo#XX    X..",
"............X           XX++   X.XX  X.X..X   +OoooooO+XXXXX....",
"..X........ ++++++++       XXXXXXXX   X X..X X +##@@@# XX.......",
"X.........Xo$o$$$$oo@           +     XX XXXX XXXXXXXX..........",
"...XX.XXX. OoOoooooOO#                X.. X     X  X............",
"...XX. ### Oooooooooo#X                ..      XX  X.XX.........",
"... X.@$$o+@ooooooooo#  XX              X.X  X..X   X X.........",
".X.X..#ooO @ooooooooo#XX...X          X.      .X    XX X........",
"  X  X+@@@X+#######@@+....XX     XX   X.X XX.X  XXX    XX.......",
" X     XX..XX.X.X X.X  X..       XX      XX..XXXXX   XXXX... X.X",
"       ....X X.X   X    X       XX    X  XXXXXXX         XX     ",
"..    ....X  XX X  X            XXX   .X    X.X   XX      X XXX ",
".X    X....  XX                 X           X      X  ..XXXXX   ",
"       X... X               X                     X.XX...       ",
"        X.X XX     XXX.X   +                XX.XXX...X..X       ",
"        X     XX  XXXX.X  X                 @oOOOOOOOO@+   XX   ",
"   X   XXXX  XX     XXX   X       XXXX      Oooooooooo$O  XXXX  ",
"X        XX        ++## X      X......      @oooooooooo#X   ..X ",
"@@@#+XX  XX      XX+$o$#X   X..........X    @oooooooooo# O@@@#@@",
"$$$$$#XXX...X X   X+ooo#X X.............    @ooooooooO@+#$$$$$$$",
"ooOoo#...X XXXXX  X @O@+  ..............    @@@@@@@@@@@ +Ooooooo",
"ooooo+.XXX XX XX++ XX     X............X      +   XXXX . Ooooooo",
"ooooO+X  XX  ++++  X.X     ......... X         X  X....X+Ooooooo",
"ooooO+    + +XX  XX X      X.......   XXXX       X...... OOooooo",
"#@@@@  X.X   X.XXXX        + X.....   O$$$$$$$$$ooOOo XX #@@O@@#",
"XX   XX.X XXX X.X       +    + ....+ #$o$o$$$$o$o$oo$#X..XXX XXX",
"..XXXX  XXX.X  XX  XX          +X    #OOooooooooooooO+... X XXX ",
"..XX..  X.XX +#+++++++               #ooooooooooooooo+...XXX...X",
"......X+#@@@@@oooo$oooO+             +ooooooooooooooO+..........",
".......O$ooooOoooooooooO+     +  +   +oooooooooooooOO+...X.....X",
" X....X@OOooO@oooooooooO           + +OoooooooooooO@@ ..X X...  ",
"       #oooo@#oooooooooO    +         @OOOOOOOOOO@O@#XXXX  X..XX",
"   XXX +OooO##OoooooooO@             X +++#####+++++ ..X    X...",
"   X...X+++#  #######@##XX X  #ooooOOOOOOO@+X  X XX.....X   X...",
"X.XXX.....X#@@@@@@@@@@@@####+X#$ooo$o$$$$$$$       X....... ....",
".XX  X..X.#$$oooo$o$o$$$$$$$$++OoooooooooooO+   XX XXX..........",
"X    X..X.#oOoOOooooooOooooOO#+Oooooooooooo@       ...X.........",
".XX   .XXX#OOoooooooooooooooO#+Oooooooooooo@      X....X..X.....",
".X  X.XXXX+OooooooooooooooooO#+OOooooOOoooo@      X..... XX.....",
"..XX..XXX +oooooooooooooooooO# ##@@##++##@@+ ++++++ ++    X.....",
"...X     X+ooooooooooooooooOO#.X..X.XXXXXXX ooOoooooooooooo#....",
" X  X     +OoooooooooooooOOOO+@O@@@@OOo$$o+#$OooooooooooooO@....",
"         X+OOoooooooOOOOOoOOO+$oOoOoooooo$#+Ooooooooooooooo@....",
" XX      X #@@@@@#######@#@## oooOOoooooo$# Ooooooooooooooo#....",
"     X      + +      X XXXXX.XOooooooooooo#X@oooooooooooooo#....",
" +       X  X      XXXXXXXXXX @ooooooooooo# ##Ooooooooooooo+....",
"   ..X  X                    X#Ooooooooooo++O##@OoooooooooO ....",
".XX......             X    XX.#OoooooooooO++Oo@+#@@@@O@@@@#X.XX.",
"XX.......     XX    XXXXXX....+OoooooooooO . ++ X  +  +   XX    ",
"  .......X          XXX.XX.... #@@OOOooO@@ ...XXX.XXXXXX X      ",
"  ..XX...           X..XX.....X+++++#####+XXX.   ..X...X X..XX.X",
"  XX   .X           ...XX..........XXXXXXXX X.   ......X X.XX...",
" XX.X XXX          XXXX   XXXX XXXX  XX          X.XXXXXX...  ..",
"XXXXXXXX                                                  XX  XX"
};
