/* XPM */
static char *xpm_[] = {
/* columns rows colors chars-per-pixel */
"64 64 229 2 ",
"   c #291200",
".  c #341C01",
"X  c #391E01",
"o  c #311100",
"O  c #352304",
"+  c #3E2404",
"@  c #3B250A",
"#  c #3E2A0C",
"$  c #3F300F",
"%  c #422905",
"&  c #4B2C05",
"*  c #442C0B",
"=  c #442805",
"-  c #4B320C",
";  c #47300E",
":  c #56340C",
">  c #462E13",
",  c #4A2F12",
"<  c #453113",
"1  c #4C3414",
"2  c #4B351A",
"3  c #4C3A1B",
"4  c #473418",
"5  c #523613",
"6  c #543A14",
"7  c #5A3D15",
"8  c #543C1C",
"9  c #593E1B",
"0  c #50371A",
"q  c #5C2F05",
"w  c #65380E",
"e  c #553E23",
"r  c #593E20",
"t  c #5B421D",
"y  c #554015",
"u  c #63441D",
"i  c #6A461C",
"p  c #544124",
"a  c #5B4424",
"s  c #5E4925",
"d  c #5B462A",
"f  c #5D4A2B",
"g  c #57452A",
"h  c #5D4B30",
"j  c #624623",
"k  c #644A24",
"l  c #6D4D25",
"z  c #614728",
"x  c #644C2B",
"c  c #6A4E2B",
"v  c #744D23",
"b  c #67522B",
"n  c #6C522C",
"m  c #6E5025",
"M  c #73542C",
"N  c #7A542C",
"B  c #76572C",
"V  c #644C31",
"C  c #674F34",
"Z  c #645233",
"A  c #6C5433",
"S  c #6E5934",
"D  c #6B563A",
"F  c #6D593C",
"G  c #665038",
"H  c #715633",
"J  c #735A34",
"K  c #7B5C34",
"L  c #745C3B",
"P  c #7A5E3B",
"I  c #745737",
"U  c #76623C",
"Y  c #7B623C",
"T  c #7E683E",
"R  c #7D6036",
"E  c #6E5C42",
"W  c #745E42",
"Q  c #766243",
"!  c #7B6443",
"~  c #7F6944",
"^  c #7D664B",
"/  c #7D6A4B",
"(  c #746449",
")  c #7D6C51",
"_  c #83572C",
"`  c #855E33",
"'  c #836136",
"]  c #83633B",
"[  c #8A663B",
"{  c #8C693E",
"}  c #83673C",
"|  c #926A3E",
" . c #95663A",
".. c #816643",
"X. c #836B45",
"o. c #8C6C44",
"O. c #836C4B",
"+. c #8A6E4B",
"@. c #806649",
"#. c #936E42",
"$. c #956F47",
"%. c #85714C",
"&. c #8B724C",
"*. c #8B7349",
"=. c #957145",
"-. c #987347",
";. c #94744C",
":. c #9A7449",
">. c #9C7A4E",
",. c #95784E",
"<. c #846E52",
"1. c #866C50",
"2. c #857152",
"3. c #8B7453",
"4. c #8E7955",
"5. c #8B765A",
"6. c #8D7A5B",
"7. c #86755B",
"8. c #927653",
"9. c #937A54",
"0. c #9B7B53",
"q. c #947C5C",
"w. c #9A7D5B",
"e. c #9A7751",
"r. c #A17548",
"t. c #A27D52",
"y. c #A37F58",
"u. c #8D7B61",
"i. c #947D62",
"p. c #9A7F63",
"a. c #8F805F",
"s. c #94815D",
"d. c #9B825D",
"f. c #9C8357",
"g. c #A3835C",
"h. c #A9855A",
"j. c #B2875D",
"k. c #958263",
"l. c #9C8464",
"z. c #9D8964",
"x. c #968469",
"c. c #9B856A",
"v. c #9D8A6B",
"b. c #9E8C72",
"n. c #9F9073",
"m. c #A28563",
"M. c #A98763",
"N. c #A38A65",
"B. c #AB8C64",
"V. c #A3876A",
"C. c #A38C6C",
"Z. c #AA8E6B",
"A. c #A9876B",
"S. c #B48E65",
"D. c #A4916D",
"F. c #AB926C",
"G. c #B2946D",
"H. c #B9976B",
"J. c #A48E71",
"K. c #A88E71",
"L. c #A59273",
"P. c #AC9474",
"I. c #AE9975",
"U. c #A6947A",
"Y. c #AB9679",
"T. c #AD9A7B",
"R. c #B19673",
"E. c #B39A75",
"W. c #BA9B74",
"Q. c #B49C7B",
"!. c #B99E7B",
"~. c #B49775",
"^. c #B08E72",
"/. c #B5A17D",
"(. c #BBA27D",
"). c #BCA87C",
"_. c #C29E76",
"`. c #C3A47B",
"'. c #C4A479",
"]. c #AD9C81",
"[. c #B39D82",
"{. c #B89E80",
"}. c #AFA183",
"|. c #B4A283",
" X c #BBA483",
".X c #BEA985",
"XX c #B5A58A",
"oX c #BBA68A",
"OX c #BDAA8B",
"+X c #BCAC92",
"@X c #BFB08E",
"#X c #C1A683",
"$X c #C3AA85",
"%X c #CCAC83",
"&X c #C3AC8B",
"*X c #C9AE8C",
"=X c #C0A789",
"-X c #C4B18D",
";X c #CBB18D",
":X c #C4B187",
">X c #D3B387",
",X c #C4AE93",
"<X c #CAAF91",
"1X c #C4B293",
"2X c #CBB493",
"3X c #C5B499",
"4X c #CBB49A",
"5X c #CDBB9B",
"6X c #CDBB95",
"7X c #D1B693",
"8X c #D2BA94",
"9X c #D3BB9C",
"0X c #D8BE9D",
"qX c #D0B798",
"wX c #D0AF86",
"eX c #CEBAA1",
"rX c #D4BDA2",
"tX c #D8BEA1",
"yX c #DBC39D",
"uX c #D4C09F",
"iX c #D4C2A2",
"pX c #DBC3A4",
"aX c #DBC5AA",
"sX c #DAC9AA",
"dX c #D7C8A8",
"fX c #E4CBAD",
"gX c #E3CAA7",
"hX c #E2CCB1",
"jX c #EBD1B8",
/* pixels */
">.t.g.t.-.| =.t.h.| -.-.| | | S.l % u n O.9.4.q.X.Y Y ~ &.3.! J n n T ~ ~ U S T ~ D z A G x W @ 3.p.R.!.(.~.z.9.w.C.I.F.F.*.w.d.",
"S.j.h.| [ [ { | >.-.:.-.:.f.f.B.j . * & 5 6 1 t 5 t x n A A A A n b t y s s a t a a 8 3 d L 5.> 1.Q.Z.p.*XpX2XqX~.~.W.E.!.F.(.(.",
"S.h.| [ [ [ [ [ :.:.:.[ { -.| | c - j k n H H Y U ~ O.~ Q ~ %.4.*.9.4.~ ~ %.2.%.O.3.3.1.1.5.Y.W 9XtX{.Q.pX0XQ.Q.C.Z.I.!.(.(.&XQ.",
"f.{ ` | =.| | t.-.| -.[ { -.| | 7 - c Y P P J U P L J Q 2.d.z.N.z.D.N.f.X.! ! ! @.6.c.p.V.Y.{.@.pX2XtXhX0X|.Q.(.C.I. X$XQ.E.&XE.",
"| | [ | =.-.:.>.=.{ #.[ ' [ ` | u j T d.d.q.3.3.&.O.3.l.I. X/.L.I.d.3.%.%.O.@.O.p.V.P.k.^.=X[.L tX4XrX9XoXP.Y.P.XX.X&X-XQ./.1XQ.",
"-.>.=.[ [ =.=.[ { ` ' ' B B B [ k k X.~./.#X#X).P.P.P.E.E.I.D.v./.P.P.Q./.Q.Q. X{.Q.Q.K.K.u.@.V pXrX,X,X,XY.C.XXY.[.Q.-X.XOX-X/.",
"{ =.o.{ #.;.o.' [ K ] [ { { { f.H H *.Q.).;X&X XQ.!.Q.I.L.L.I.Q.E./. X&X XQ.Q.Q. XT.oXXX[.i.1.1.aXhXiX,XT.6.i.oXL.Q.T.1X.XXXP.v.",
"' B K 0.B.0.;.,.g.>.0.;.;.=.] } n A Y I.R.(.Q.C.Q./. X|.Q.T.Q.|. X(.!.E.|.OX.XQ.T.{.=XK.{.,XJ.G J.u.) ( ^ ].1XL.L.OXT.|.z.2./ 2.",
"7 6 7 u k i l M ] o.+.;.,.o.P M n b 9.E.P.&XP. XQ./.|..X|. X/./.I.&X/.!.!.|.oX X[.oXI.T.K.T.Y.e XXb.) x.U.v.T.+X1XOXXXL.k.) Q S ",
"g.d.w.&...+.m.(.W.(.!.W.R.M.R.`.F.L C.$XI./..X X.X.X X|./.|.|..X XOX X&X<X&X=X&X&X<X=X&X=X,X=XD aXdXXXU.U.2.( u.U.T.U.b.x.k.a.a.",
"F.R.E.Q.W.P.I.E.Q.F.l.N.P.!.~.P.P.J C. X X!..XQ.|./.T.Q./.|.|.XX X XOX|.[.T. X2XoX{.T.[.T.Y.K.V x.<.( W g 4 3 4 # < < # $ y p y ",
"P W ! X.@./ O.O.L Q L A a x 8 8 a t P ~ q.4.@.~ F L U Q ( ~ ~ Q Q I / @.3.<.! G W L W 1.<.5.q.F <.7.F E 6.2./ 5.h Z g y p f g $ ",
"L.Q.|.Y.v.n.|.2X&X.XU.v.O.L 3 x I ~ / O.%.3./ 4.l.z.v.D.L.D.n.D.k.i.[.^.i.<.p.[.T.Y.{.4XrXpXfX9XrX,XOXrX1X2XrX|.C.l.6.2.7.a.~ b ",
",X4X4XOX}.T.|.XXhX3XXX+X+Xx.p / s.%.q.I.4.l.D.Y.T./.|.T.Y.L.Y.T.{.L W I @.^ i.^.K.^.K.[.T.Y.P.C.5.u.Q F G d e a f g y p f Z s 4 ",
"dX3X+X}.XX+XXX}.b.}.].+X}.u.4 u.D.s.D..XY.Y..X/.T././.T.v.l.l.V.Y.@.U.U.[.K.^.[.[.K.J.V.V.K.K.L.p.O.O.6.W A ! A a a z A S S S U ",
"XXXXXXXX+X3X3X+X}.iXXX].XX].G v.Y. XT.z./.I.Y.D.L.Q.|.T.v.k.q.i.1.5.tX<X,XoXoXT.oXV.5.O.1.q.l.J.q.6.c.&X2X[.I.k.L.L.I.Y.C.k.C./.",
"XX].}.@X@X@XXX@X5X1XT.x.b.u.) u.XXU.L.L.I./.T.v.c.P.Q.E.I.~.V.3.&.4.(.I.l.q.z.q.O.O.q.s.O.L L U O.L.OX|.I./..X-X5X6X&X2X1XOX5XOX",
"}.T.T.}.T.}.OX3X1XoXY.b.b.7.( ) }.n.n.}.T.v.s.a.E.P.L.P.Q.!.!._.Q.W.0X7X*X(.F.*.X.P D S L ! ! L U z.I.z.s.Y.XX/.T.T.Y./.T.T.[.v.",
"}.}././.|.-X1X6X Xk.O.2.k.u.E ( k.7.a.z.k.z.v.D.l.l.q.d.z.Z.C.p.9.m./.d.+...X.q.q.O.U U / s.s.X.L L U ~ c..X5X5X-XOX1X|.Y.!.P.v.",
"XX/.T.T..X-X.XI.P.O.W 3.k.a.E ) x.v.v.7.2.k.D.k.m.k.q.q.l.p.8.&.Y #.g.N.Z.d.T Y Y U T X.3.d.D.d.k.4.%.z..X8X5X-X1X&X5X/.L.D.2.( ",
"@X.X.X/.(..XP.s.3.*.s.P.v.q.( Y.OX6X5X1X-X5X6X|. XC.k.C.P.V.V.~.P.f.X.} } X.} 4.Y Y *.s.9.9.d.z.D..X*X|. X<X Xc.l.l.C.4.q.P.P.F.",
"s b x y 6 - - & 7 7 x A x x t C.|.Y.|.1X2X1X1X&XE.E.I.m.C.!. XQ.).f.*.*.Y U U ,.,.&.d.N.N.z.D.F.|.OX1XoX X&X XP.(.Q.z.%.%.s.s.l.",
"5 y y 6 - & : y u t 6 6 t A 8 P.&X/./.OX|.P.R.~.P.(.!.P.~.=X&XW.7XX.k T X.o.U Y F.I..X;X;X6X0XtXsX1X&XqXqX|.P.E.3.q.~ ~ 4.%.~ Y ",
"b b n B n M B B M Y K M A P 0 ~.2X&X&X$XQ.P.P.z.!.C.A. X X~.Q.7X7XY 9 H x S P 3.d.F././.C.V.P.J.!.|.*X9X&XC.1.@.~ X.x n X.*.d.z.",
"b n B J m l m m B i B K u I ..N.z./.I.E. X/.Q.Q.C.Q.qX7X!.=X<XQ.$X+.0 , 9 9 r r a e 0 8 a p e e 1 x x 0 8 r 0 8 3 - 1 - k ~ X.N.",
"B n m m m m M v ' B n l H +.c H E.I.9.&.q.8.O.Y 3.&.3.+.+.9.w.+.V.p.p.p.p.3.@.1.V.V.c.c.V.c.i.q.5.1.1.8.5.L z 3. XN.0.9.Z.F.z.G.",
"B m n M m m m i v K l l X.;.k O.d.(./.E.F.N.F.(.R.Q. X*X*X*X&X X6XtXgXfXtX<XqXtXiXpXpXdXtXaXrXeXqXqX&X=X&X#X+.R.F.N.R.Q.F.d.f.z.",
"J J R ' R ' } { K ] J ` ;.} t 0.U 9.Z.:XyXpX8X#X&X7X7X2X9X0X9X0XtX9X2X<X<XqXtXaXfXfXhXgXtXrXrXqX&X0X<X!.#X7XP 3.F.O.! X.+.d.E.(.",
"*.*.#.;.,.f.h.h.[ B K 0.F.R.8.Z.).Z.8.d.(.7XpX7X0XgX9XqXgXfXtX&XE.I.E.).*X*X&X#XN.D.N.s.q.q.l.z.Z.G.^.W.!.W.x q.+.8.A.#X*X<X#Xw.",
"E.B.N.B.B.h.>.} >.,.h.G.G.W.+.P K Y P Y M b P H c I ..@.X.+.P a k k k n H H M H b B b s a x n A j u 9 k c j & 8.m.Q.#X*X#X!.Q.w.",
"`.(.(.).W.h.f.' o.>.B.F.N.Z...P X.X.] T H n P x c c L I x A W P R B B n m J X.9.F.F.f.*.X.X.X.T &.o.] J P K c 0.~._.V.m.^.R.^.p.",
")..X$X`.(.(.).'.W.(.(.W.R.F.X.q.9.&.o.;.X...&.Y X.H W +...@.+...X.T *.f.N.G.$XyXyXgXyXuXuXyX8X;X(.F.N.Z.R.O.r 9 q.Y.C.K.K.m.J.^.",
"&X2XoX,XoX2X[.XX-X2X6X:X2XrXY.I q.+.X.O.O.Y J x H H x A P P A x s S Q L L W ! A L W L D A D D x s 1 0 2 r 0 z 1 0 a z z C c z a ",
"6.k.3.i.u.E i.p.z.z.d.s.p.x.<.C ! } ..Y J J I P P P z x P W +.5.5.~ Q O.3.5.^ C < < > > < 0 0 2 e . # * , , r 0 + + X X * * + % ",
"6.L.T.,Xb.o b.oXI.I./.). XOX=X=XE.(.(.W.E.W.!.W.Z.Z.&.q.#X<X<X0X9X.X.X9XrX&XP.p.3.O.~ %.+.X.Q L L 2 I O.@.W D C H I x k l x c A ",
"L.L.x.U.b.@ {.,X$X.X$X$X;X;X&X=XW.(.!.Q.!.).R.w.8.m.8.V.=X!.R.Q.I.I.&X;XQ.z.d.z.(.D.%.T J D J Q ! 1 C P G ` W ] W +.o.P M i 5 5 ",
"4.2.Q Z h . [.{.2X;XW.F.).%X#X!.!.(.(.!.).&X~.q.I.;X X2X0X!.!.#XF.(.:X).N.z.E.).).I.F.F.N.*.Y J @.j I ..I I c u r.j._.y.t.:.` N ",
"I.n.I.U.p.2 ].eX-X$Xh.,.G.%X#X`.Q.(.).!.(.#X(.R.(.!.l.Q.&X!.<X$X$X:X;X$X).;X8X;X$X).(.I.E.R.E.!.~.+.c I c ` $.e.y.j.y.t.j.M.$._ ",
"I.z.D.XX,X2 3.z.;X;XH.g.H.'.H.R.W.(.!.W.R.!. X#X#X~.8.!.*X=XgX&X.X#X$X$X:X8X:XF.N.F.E.(.).$X#X!._.p.l +.y.y._._._._.j.j._.t. ._ ",
"v.I.U.D.[.2 P.I.N.).H.H.'.'.B.S.%X$X#X X`.$X*X&X!.{.Q.0X&XR.<X!. X).$X.X(.(.E.d.F. X;X;X6X6X7X*X;XM.7 ` e.+.e.y.j.y.j.j.t.r. .r.",
"D.D.D.}.v.e Y.<XM._.wX'.wXW.'.wX7X7X;X*X;X;X*X X*X*X$X=X$X X=X=X X XQ.T.{.K.V.K.K.Q.#X<X=X*XtX=X;Xg.o & = & q & w _  . . . .`  .",
"T s.4.~ D < {.,X;X~.%X>X'.h.'.>X(.(.`.#X$X;X*X$X X!.!.{.{.!.~.Q.!. X=X=X[.K.J.[.{.9XqX4XqX4X4X=X7Xg.: M ` N K i _ _ v w q q w w ",
").D.I.6X=X2 p.,X$XZ.,.:.'.'.W.S.W.).#X$X$X*X$X$X#X). X#X#X!.~.Y.V.p.V.K.V.p.p.p.i.^.3.@.p.K.V.l.P u 7 o.y.;.' B N N i i v _ v w ",
"uX).:XdXqX2 D C 5 c - X i B 7 & 6 7 9 t 9 6 5 5 2 5 5 0 1 * = X 2 X = > * * * X X 1 X o 1 1 + + = % 7 J 0.8.g.B.y.e.` N N N _ _ ",
"!.$X{.[.[.e p.i.x 9 9 u 7 6 7 u 5 0 6 6 7 7 9 9 x c A c x z z z z r x c r r z z I L I G c z s n u t J R f.f.N.Z.W.W.Z.+.W _ C _ ",
"#X~.~.{.,Xe [.jXQ.3.H I J R J J k k c n A n H L L P P P I H H A H A A H n A J J A x n A D P A n k y n T E.$X$X(.~.!.#X#X{.p.p.5.",
"'.).,X{.oXo 5.oX<X=Xw.U n K b n H n n H J H A H P L L L L P J c H M k n P Y J M K &.g.d.(.`.d.f.F.~ S X.I.).$X.X;X&X#X=XqXqX=X{.",
";X$X=X,X4X> i.4X2X|.!.I.~ s.C.O.T R P } ..~ P J J I I P O.4.+.Q x K J J } T Y X.c N.N.K *.0.%.F.D.T b f.)..X-X2X2X9X4X<X,X=X<XtX",
":X&X&X{.c.> V @.G C x V A L ! @.u n n l k t a J H z 5 a Y D 0 * * % + % - 1 0 8 5 - , * > r q.q.b   U T. X/. X-X-X-X@X@X@X-X-X-X",
"|.m.p.1.L o e e d d h x d x f z c A k 0 j b A J D I D S F g 3 y D x s a 8 a x F D V r D V.V.[.+XuXU / OXsX5X5XuXuXuXuXdXsXhXdXdX",
"q.6.K.k.2.< <.v.W @.i.K./.Y.s.~ P ! Y U ! ! L D 6.6.6.6.6./ ( / ! / 6.k.k.3./ Q <.W <.x.[.].eX+X}.}.T.T.x.Y.,X].}.}.U.n.a.a.a.a.",
"A ! m.q.2.> 2.1XU.Y.[.oX@X@X|.L.c.6./ / Q D / v..X}.]./.U.b.a.u.b.c.k.L.T.U.x.6.5.u.[.+X].].eX+X3X/ E T.U.U.c.7.F F Z h g g U %.",
"O.3.4.~ v.f 2.uXuXiXuXuX@X.X@X@X3XT.v.k.7.2.L.3XXXXX+X+X+X+XOXXX@XXXT.].XX}.].U.x.XX+XeXaXeX+X+X3X4 G ,X].u.u.].+X+X}.].n.n.n.n.",
"4.&.T U z.b S T.a.k.z.D..XuXuX:X@XOXOXXXU.].U.n.3XOXXX+X+X3X+XXX].XX3X5X3XOXXXXX+XOX+X+XeX[.+X+X3Xe G i.u.U.J.b.}.n.x.x.n.}.U.n.",
"J J B b S 6 ; D U Z b S s.).).@XOXOX.XXX|.|.T.k.) E E ) a.b.U.n.5.s.v.x.6.2.6.k.L.7.x.x.<.( x.6.) @ # g e d V g h g g g h E E E ",
"& + + - * - y b b b b s s b S S ! D Q 2./ ^ ! D Z x Z a $ # p p t p y 1 + . X # . * # @ 0 > 0 * p a f a e @ 4 @ O 4 h Z h g g h ",
"{ } y.~._.#X~.w.q.s.w.p.9.8.8.w.4.P.P.V.P.C.8.q.q.4.3.3.8.&.X.g.d.9.*.d.N.9.T Y @.t k Q Y W L @.U ~ T ~ ) %.! n E 7.4.2.7.a.n.n.",
"0.M._.%X#XW.^.A.m.q.w.p.A.m.w.9.+.F.~.Z.P.Z.z.B.8.;.+.X.&.8.X.9.f.Y B ;.g.d.d.B.Z.n M ` K P J @.T T ~ T *.%.~ U U 7.%.%.z.n.I.D.",
"h.M.M.g.A.M.y.m.^.A.p.y.w.q.w.g.d.W.!.R.W.E.Z.F.F.G.B.0.w.g.,.8.>.R } f.=.K #.B.S.7 j ` o.:.] ` T T T T X.*.X.U Z a.a.z.I.D.z.a.",
"u ;.S.A.y.y.m.^.w.m.A.^.p.w.w.m.m.Z.N.N.R.W.F.N.Z.G.W.B.g.d.0.d.h.' =.'.wX%XwX%XW.i B P ] +.] ] U T T U T X.T U S z.z.z.L.D.D.D.",
"7 B Y K ;.l.w.w.V.V.l.z.p.p.q.w.l.l.s.z.I.Q.Q.Q.m.N.R.G.S.F.A.G.H.9.h.'.(.G.B.,.X.7 ` ] ] P K K B S S n H Y U S s s.T./.T.D.I.T.",
"0.f.&.B b S @.4.p.k.V.v.Z.V.C.P.v.v.C.L.C.P.P.E.P.m.F.E.I.I.F.F.F.B.).).g.,.d.g.;.k J ! 0.Y H k k b b b b D S b / L.T.U.L.n.T.n.",
"/.f.J S S b f 8 p D 2.k.k.k.k.k.U.U.T.U.C.v.C.L.P.c.E.P.C.~.E.E.`.E.F.F.Z.N.N.g.f.u - A P.m.I.F./..X)..X&X2X1X<XOXOXn.7.) x.3XuX",
"E.U b T ~ U Q ~ g 4 O O O # $ $ 3 $ 4 p p e p 3 < e L Z p L 2.s.d.d.f.d.N.d.s.z.q.H z +.|.P ~ O.*.4.4.s.p.v.C.k.k.k.u.) F 7.3XiX"
};
