/* XPM */
static char *xpm_[] = {
/* columns rows colors chars-per-pixel */
"64 64 160 2 ",
"   c #535353",
".  c #565656",
"X  c gray34",
"o  c #585858",
"O  c gray35",
"+  c #5A5A5A",
"@  c #5B5B5B",
"#  c gray36",
"$  c #5D5D5D",
"%  c gray37",
"&  c #5F5F5F",
"*  c #606060",
"=  c gray38",
"-  c gray39",
";  c #646464",
":  c #656565",
">  c gray40",
",  c #676767",
"<  c #686868",
"1  c DimGray",
"2  c #6A6A6A",
"3  c gray42",
"4  c #6C6C6C",
"5  c #6D6D6D",
"6  c gray43",
"7  c #6F6F6F",
"8  c gray44",
"9  c #717171",
"0  c #727272",
"q  c gray45",
"w  c #747474",
"e  c gray46",
"r  c #767676",
"t  c #777777",
"y  c gray47",
"u  c #797979",
"i  c gray48",
"p  c #7B7B7B",
"a  c #7C7C7C",
"s  c gray49",
"d  c #7E7E7E",
"f  c gray50",
"g  c #808080",
"h  c #818181",
"j  c gray51",
"k  c #838383",
"l  c #848484",
"z  c gray52",
"x  c #868686",
"c  c gray53",
"v  c #888888",
"b  c #898989",
"n  c gray54",
"m  c #8B8B8B",
"M  c gray55",
"N  c #8D8D8D",
"B  c #8E8E8E",
"V  c gray56",
"C  c #909090",
"Z  c gray57",
"A  c #929292",
"S  c #939393",
"D  c gray58",
"F  c #959595",
"G  c gray59",
"H  c #979797",
"J  c #989898",
"K  c gray60",
"L  c #9A9A9A",
"P  c #9B9B9B",
"I  c gray61",
"U  c #9D9D9D",
"Y  c gray62",
"T  c #9F9F9F",
"R  c #A0A0A0",
"E  c gray63",
"W  c #A2A2A2",
"Q  c gray64",
"!  c #A4A4A4",
"~  c #A5A5A5",
"^  c gray65",
"/  c #A7A7A7",
"(  c gray66",
")  c #A9A9A9",
"_  c #AAAAAA",
"`  c gray67",
"'  c #ACACAC",
"]  c gray68",
"[  c #AEAEAE",
"{  c #AFAFAF",
"}  c gray69",
"|  c #B1B1B1",
" . c #B2B2B2",
".. c gray70",
"X. c #B4B4B4",
"o. c gray71",
"O. c #B6B6B6",
"+. c #B7B7B7",
"@. c gray72",
"#. c #B9B9B9",
"$. c gray73",
"%. c #BBBBBB",
"&. c #BCBCBC",
"*. c gray74",
"=. c gray",
"-. c gray75",
";. c #C0C0C0",
":. c #C1C1C1",
">. c gray76",
",. c #C3C3C3",
"<. c gray77",
"1. c #C5C5C5",
"2. c #C6C6C6",
"3. c gray78",
"4. c #C8C8C8",
"5. c gray79",
"6. c #CACACA",
"7. c #CBCBCB",
"8. c gray80",
"9. c #CDCDCD",
"0. c #CECECE",
"q. c gray81",
"w. c #D0D0D0",
"e. c gray82",
"r. c #D2D2D2",
"t. c LightGray",
"y. c gray83",
"u. c #D5D5D5",
"i. c gray84",
"p. c #D7D7D7",
"a. c #D8D8D8",
"s. c gray85",
"d. c #DADADA",
"f. c gray86",
"g. c gainsboro",
"h. c #DDDDDD",
"j. c gray87",
"k. c gray88",
"l. c #E1E1E1",
"z. c #E2E2E2",
"x. c gray89",
"c. c #E4E4E4",
"v. c gray90",
"b. c #E6E6E6",
"n. c #E7E7E7",
"m. c gray91",
"M. c #E9E9E9",
"N. c #EAEAEA",
"B. c gray92",
"V. c #ECECEC",
"C. c gray93",
"Z. c #EEEEEE",
"A. c #EFEFEF",
"S. c gray94",
"D. c gray95",
"F. c gray96",
"G. c #F6F6F6",
"H. c #F8F8F8",
"J. c #F9F9F9",
"K. c white",
/* pixels */
"a w S S F S g R ( U U S S ! F F U ( ( 2 l F m y R o.+ 2 y a g l g a u.U w y g B a l g a g a y g g g S g 5 ( J 5 B l 9 m l 2 | | ",
"S g g m S U m l m l a y y a l g y ! { 9 a a a 9 *.7.y m F U S g m F u.| g g l m S F B l l m B F U m S m m 7.3.m J U U | { F t.d.",
"t.0.3.u.o.o.@.| ( | ( R ( J { U R o.o.| t.! ! U | 7.o.3.@.3.:.0.:.*.3.u.*.:.d.t.:.7.3.:.3.3.7.u.z.*.:.*.3.*.| @.:.:.3.7.:.{ :.7.",
"B U R :.a w F J 5 w g a S g U F B l w J 7.m B l 9 5 2 w 9 g w w m l w B F J 3.{ w l B S S S B J 0.F B S *.B , a m l m m m m l g ",
"B B B 3.a 2 l l B g F w l a l m l S a J *.g S m m a a a w m a a y J J m B l :.U g S J U R J F U *.B F m | U m m S l m m m J S S ",
"U S J 7.S 9 l l l 9 l 2 g B S J m B a J *.y B S g a l g 9 a l B m B F F U l *.:.g B S S J J J ! 0.a J S a w B l m B m l g m l F ",
"l a B o.S w S F g w 9 , 9 y y y g a 5 B @.a g l B l w w g l l w m 5 y m J B ( 0.m B m g m B F ! j.y g l y 2 9 5 w l y l g m l F ",
"3.| :.t.*.( o.o.{ o.U { | { | U U { ( ( t.! R S J ! R ! { ! { ( o.3.d.7.*.t.u.N.t.0.:.o.@.*.3.t.u.*.7.@.3.@.| t.| :.( *.:.:.o.@.",
"S R F B U F l B F J R S B J F B l o.j.9 l 2 2 9 9 5 w m w B l w l J 0.B ! m { U B l B l F S m a B U ( J ! V.*.S ( ! ( R F F z.o.",
"9 m m g m y w g B a a R g y , g a R *.# a w w 5 2 a w g l y y y 2 U 3.m l F U m l a B l m l l l y m l m B *.R J J B l m m l 3.J ",
"g J B S S g l B m m m J a J g y w F ( . w y a 9 w y a , y 9 # S 9 ( :.g w F ! S B B F m B B B F U F F B J 0.F F ! F S F U J t.{ ",
"a l 9 y g w a y g 5 w y 9 y w 9 5 m U # 2 , 9 5 5 J B B U y g a 2 B 3.F F l B y l y g a m m g g S a l w J N.l y B l l m m l *.o.",
"| @.( o.@.! | { { U ( ! U R R R R { *.R J S U U F U :.! ! { U F J { d.*.@.! { ! @.o.@.3.7.7.*.*.*.:.| ! 3.K.@.U *.:.3.:.@.o.d.d.",
"J ( ! @.{ S U F ( ! F ! ( 0.{ ! ( U ! ! R U R R ( | ! J B U 3.R ( o.o.! B ( R | { | *.:.o.o.! { u.V.( :.*.*.3.| | o.| ( { R ( R ",
"l F S { R w g w F w . l U ( g J J l m F B S J S F B R S g { ( S S U J R m R B S U U ( | R R S U o.@.y R S m ! R S U S B S S B l ",
"F J B | ( a m 9 m J B w B U S U J B B F g B J S B F B S m ! ( U R F U R U U S J J S S R R { U ( 7.! g U J ( F S B R F B S U U U ",
"S J F @.U 5 5 w 2 9 g g U ! y l g y - 9 , , l w 9 S S S F *.S F F S a J S R S U R U U U J U U S o.R w ! B J B F U U S S l g S R ",
"g l g :.0.@.R S F g w 9 ! 3.( { J F m S F B S m F S B J @.c.*.o.( ! o.@.J ( @.! U U ! ! ! ! R F 7.o.F U m F l a l B l g S a a w ",
"0.3.( 0.t.t.t.7.| o.3.:.7.u.3.0.7.t.0.| 3.o.o.7.c.3.*.| o.7.@.@.*.c.F.*.7.*.3.*.*.:.7.0.3.7.3.*.*.o.o.@.0.D.0.o.{ 7.@.o.7.o.j.z.",
"( { F ! J U R R { R R J R { J F J ! ( 9 J B g { *.S J S m l S U g *.*.a J B B B S F J J S F J F J J ( ! { t.S w a F B g B g 0.:.",
"{ ( J ! ( { ( R J U U B B F R ( R { | y ( U l | 3.m F F J F F S U o.o.F J ( ( J J J R R F J U F F U ( ( ! 0.m B S S J U F m :.S ",
"( J l l m S B S F F B S ! ( U F F ( o.g S m m @.@.a g l F R R U ! :.( F J ( J J l m S S m l g y U F F ( { d.B F F S U U B S 0.! ",
"U U R { ! ! J R F { ! J J S B J U @.3.J F F U 0.7.J J B F U J U B *.R g B B w m F F J U F F B g B l a J o.u.J J J U J F m F 7.t.",
"7.0.t.z.d.t.*.:.:.0.o.o.u.7.( U { @.@.o.@.:.@.*.7.( | @.0.c.u.0.@.u.j.3.o.*.7.:.0.0.0.0.3.7.3.@.0.t.0.:.0.d.*.0.7.t.3.3.7.0.7.t.",
"J B J 0.a S a S B R J F ( 3.5 w 9 y 9 5 9 9 y l 5 , + + y 7.U U J R J J U 7.z.J J R ( U ! ! U R z.F R J J a 9 J J U F J F R F ! ",
"J R ( t.g U R R B y m U J ( 9 y y a g a y y a l 9 , - - a 3.U F J B R ! F ( u.F ! ( ( ( ( R J | t.l R ! ! R l a g l m U F J S J ",
"a m U z.F B S B F a m U B J 5 g y w a l a w a a S y 2 - 5 | U J ( l ( ( J J u.U U J R ! { R J 7.F.F J F m J J g B l a l l m m F ",
"m m U N.( m S m S U F m F R 9 m y 5 y y w 2 9 9 g 2 # # 2 ! ! R J g S J U ! z.*.J J J R ( U J 0.z.B F J g g g g l l g F B l a w ",
"*.7.7.V.3.@.t.o.@.0.3.o.:.t.@.7.*.| @.( { U ( ! o.R { | o.u.7.:.o.7.*.o.*.7.c.d.0.0.t.0.t.7.*.j.z.3.7.t.t.7.o.3.:.3.0.u.7.*.0.0.",
"| { R o.! ! | ( @.R | o.( @.@.| @.*.*.! o.{ o.| ! U ! ! R ! S l m 7.( B S B m S U J R R ! ! U ( ! | R J o.7.{ | R { | { J J 0.u.",
"R J S J ! J F ! R m F U B m S B F ( { B { R ! R F F S S J J B S 9 *.( l J S S F B g F U U R ! ( F ( J J o.0.! U B J R ! R J *.! ",
"J ( R m U ( U R J R U F F S m F J o.@.B o.! U F F J F F ! U F R y o.! w R F U S J g J ! F F J U ! ( F ! o.7.( ( | { R U ( ( *.g ",
"S S J F m B F B S R F S B m S R a { *.y J J B S m l U S l B g g g @.! y F F l J l F B U J B U m m J B B o.3.U J U ! B U S R 7.l ",
"! ! U J ( J J U J J U ! ( ! ( ( { 3.0.S ! R J F | | o.*.o.( | o.{ 3.d.o.| o.| | *.@.! | { ( @.t.@.:.:.*.t.j.3.3.3.7.@.7.3.0.D.7.",
":.:.3.d.F.z.7.u.7.| *.:.t.| o.| o.:.0.( *.o.@.*.*.@.| 0.3.( *.3.3.F ( R R R S F J S m R F S F t.t.7.:.@.*.3.*.3.3.:.*.3.:.*.7.3.",
"U R ! :.*.o.F J S l S B { m g F F B F m S m B B B a y J J g m B R 2 w 5 g g # 5 . . - a 5 5 + ! 3.( ! ! ! ( ! ! { ( { ! ( ! U ! ",
"R R ( *.l R B B S B S l :.U y J R F S B m a l g J m F U J S S ( B 9 F g m S w a w 9 w y , 9 # { | U ! o.| | ( R ! ! ( ! { @.( | ",
"U R o.:.w U S B B B m a 3.| w m ( R B B B l F F l a J S a a l ! U + l S a a l g a w y 5 # 5 2 R | R { { R ! ! ( R ! ! J R | ( R ",
"R { 3.*.l U m g m m l g | *.S J U R m l a y l g m g B S a w a S o.- w m y 5 a g w 5 y w 5 y y J :.| | ( ! { { o.@.@.{ R ! ( { ! ",
"t.u.V.u.3.0.:.7.u.0.u.:.0.c.t.u.u.c.t.t.t.u.d.0.0.3.@.u.0.| o.{ d.u.u.@.o.{ | ( o.( o.*.@.:.7.d.d.t.0.0.d.c.u.t.j.d.7.0.0.0.z.j.",
"U U F U F ! R ! { ( | ( o.U ! J R ( d.U U J R F F J J m F U F B U u.R R F R l S J ! ! ! ! R R ! U J ( R 3.{ U | @.{ | ( { ( d.( ",
"R R F S B U R U ( U S J ( ! | R U J 7.y B y B B l m l y g m g y B *.F F U { S F U ! U J R R R ! R ! ( J 7.( F o.o.{ o.( ! ( t.F ",
"R ! U m S U ! J B g l J ( U ( B ( | t.y S a S B 9 l l l g m l l l @.! S l B m U U R U U ( ! J J | ! B l 7.| F o.( ( | ! ( | 0.F ",
"S B B a a a m m B m l m g g U S U { { . 5 9 g a w a w 9 - , a l 2 ! { J m B S ( { ( { ( { ! J U ! J J R d.*.J ! R U ! R R ( 7.( ",
"3.3.3.7.:.@.*.3.o.o.*.:.| | | ! { 0.d.*.7.7.| ! 3.3.:.t.@.| | { | t.d.j.z.F.z.u.j.d.j.t.0.0.7.z.V.u.j.j.N.j.u.d.u.3.7.7.3.3.z.d.",
"{ | o.0.*.*.@.0.c.u.7.@.*.t.:.7.7.3.| *.:.:.o.0.( ! R d.3.@.( F ( ( ! { @.j.*.U m S { ( ! { ( 7.c.| { ! R ( ! F *.{ o.o.! R o.:.",
"S J J @.( o.( @.o.R ( J ( 3.g B m a w m m a y g l y 5 ( F m F F m l y m B 7.{ F y a R R ! | ! :.:.R R ! ! ( F y J S J U m m m S ",
"S R S | J | J R | ! o.U { 3.9 l g l l l m l B a y a g 7.U y g l a y w F J j.| S ! J R J U ( U *.( { { J F U U { ! R | { U J B m ",
"S a m *.{ l J ! J U o.@.! 0.9 B m l m B m m m y y l m { | l m l m l B F w t.*.U J F U F S F U @.! F 3.S S y l U J ( F m S J B m ",
"J R R j.:.3.*.@.*.@.! { 3.D.R m J S B S m g g a a g g ( o.J R U S J R ! J u.u.:.| o.*.@.o.o.o.7.0.R :.! B S ( ! U ! ( R U S J F ",
":.7.t.u.j.7.u.t.:.j.7.0.7.d.0.:.*.0.7.o.| 3.7.@.*.@.{ 0.j.0.t.7.c.V.d.7.@.:.:.o.3.3.0.0.t.7.:.t.t.7.3.3.d.t.7.0.z.0.7.0.d.t.N.j.",
"F B R l F 5 g S S J S J U S R U J o.| m l J U B U S a B J F F m ! @.B S S l B S S B S S J J S U B U S R d.o.U ( U F ! U F B 7.:.",
"S J R ! U S g l J S F U ! R ! ! ! o.( U F B B F J S m B J F S B @.0.m R J J m F U J U J R ( U ! ! S F ( 0.U { U o.R R U ! ! t.J ",
"U R ( R ( o.U g S F ( R U ( ( ! R o.| U U F S J S S B B S S S m @.t.B { ! { F R J F J F U R F J ! J J U t.U ! J R { { J S F 7.U ",
"! S U g S U U g F S J U S ! U F S o.( m m B l a w y a y y y w 5 ( 3.F R J U m S F S F B F J m S J ! U F u.*.( R ( | U F F ! 0.J ",
"u.*.*.0.{ 0.:.7.*.| | 7.| ( o.*.@.u.0.*.3.3.*.3.:.:.7.:.:.7.*.@.3.c.t.t.t.t.7.u.t.0.7.:.3.t.3.0.3.*.:.3.z.J.V.3.@.u.7.7.@.:.N.:.",
"*.| U ( | ! ( R ! ( ( J R ! J @.| B B U ! J { | { R o.| U *.0.( ! F U F B F U | ! { R R ! { F ! | o.{ ( F F { J ! | F *.*.! ( | ",
"F J S S m a B m l l m g B l a ! F w 9 w g a m l y y J | B J R l F l a m S S m m J U R S S B m U B o.! B m l B B m F m o.U l J F ",
"F ! U J S l S S B g l m F S B { S g B S F m l g J S B J y S { l F B m F R S B B F F R B F S U { g :.! a U U B F B B m 7.{ l ( S ",
"l m m g l m g y l m m B F S J o.l w a m F l g w g g a y 5 B o.9 S B g B U l m B B l B a B S S F m :.! g ( ( B J B l y :.o.g J g ",
"R U J F U ! U F B R ( R F F ( *.! g y a J S B B 5 a l a g S 3.S { R J F ( J U S R U J F m F l l U 3.:.( { { R ( ( o.U :.7.R | ( ",
"*.o.o.( ( @.@.:.3.7.:.@.@.@.3.3.:.o.| ! | R { *.3.| ( J ! ! t.7.7.3.c.7.:.o.@.| { o.@.@.J ( R ! ! { @.{ ( *.o.! R :.| | *.o.u.u.",
"B l B l l B B J J S g B S B F l g S F y w 2 5 w o.U a a a w w g a B u.! a 9 a g w w l y 2 y y a m a g a B | ! a 9 g m a l S @.*.",
"S g S F J U B F S F F R F m U R U ! F 9 l l a 5 ( ( m l 5 y 2 S g l j.! y a l l J m F g a g m a l l B y l o.! y B 9 m B B F o.o."
};
