/* XPM */
static char *xpm_[] = {
/* columns rows colors chars-per-pixel */
"64 64 186 2 ",
"   c #38271F",
".  c #423129",
"X  c #493A32",
"o  c #574136",
"O  c #55443D",
"+  c #604A3F",
"@  c #584740",
"#  c #5D4E47",
"$  c #5A4B48",
"%  c #665647",
"&  c #65544C",
"*  c #6B5B4E",
"=  c #6A5753",
"-  c #6D5C54",
";  c #705E50",
":  c #705D59",
">  c #6E6053",
",  c #736355",
"<  c #74645B",
"1  c #796759",
"2  c #7B6A5D",
"3  c #776861",
"4  c #7C6C63",
"5  c #7E6F6C",
"6  c #806D61",
"7  c #886F68",
"8  c #827365",
"9  c #897667",
"0  c #86746A",
"q  c #8B766D",
"w  c #86786D",
"e  c #8C7B6D",
"r  c #867674",
"t  c #897673",
"y  c #877970",
"u  c #8C7C74",
"i  c #8C7C7A",
"p  c #937C72",
"a  c #917E79",
"s  c #987F78",
"d  c #8F817B",
"f  c #948275",
"g  c #94847C",
"h  c #99877C",
"j  c #96887D",
"k  c #9B8A7D",
"l  c #A08D7F",
"z  c #948481",
"x  c #988782",
"c  c #978986",
"v  c #9C8C84",
"b  c #9C8D8A",
"n  c #9E9086",
"m  c #9E918A",
"M  c #A18E84",
"N  c #A18F8F",
"B  c #A49285",
"V  c #A89284",
"C  c #A4948B",
"Z  c #A9968C",
"A  c #AB9A8C",
"S  c #A49492",
"D  c #A89694",
"F  c #A79992",
"G  c #AB9C93",
"H  c #AC9C9A",
"J  c #B29D93",
"K  c #B99E97",
"L  c #B09E9D",
"P  c #B89F98",
"I  c #AEA095",
"U  c #AEA19A",
"Y  c #B4A295",
"T  c #B4A39C",
"R  c #BAA69D",
"E  c #B6A89F",
"W  c #BCAA9D",
"Q  c #B4A4A3",
"!  c #B9A7A3",
"~  c #B6A8A3",
"^  c #BCACA4",
"/  c #BDAEAA",
"(  c #BFB1A7",
")  c #BEB1AA",
"_  c #C0AB9D",
"`  c #C1AEA3",
"'  c #C1AFAA",
"]  c #C4B3A5",
"[  c #C9B4A6",
"{  c #C4B4AC",
"}  c #C9B7AB",
"|  c #C6B8AC",
" . c #CCBAAD",
".. c #D0BDAD",
"X. c #C4B5B2",
"o. c #C9B7B2",
"O. c #C7B9B3",
"+. c #CCBCB3",
"@. c #C7B7B8",
"#. c #CCBDBA",
"$. c #D1BEB4",
"%. c #D1BFB8",
"&. c #CEC1B5",
"*. c #CFC0BA",
"=. c #D3C2B5",
"-. c #D8C5B7",
";. c #D4C4BB",
":. c #D9C6BC",
">. c #D7C9BD",
",. c #DBCABD",
"<. c #E1CDBF",
"1. c #CFBFC0",
"2. c #D4C5C2",
"3. c #D9C7C3",
"4. c #D7C8C2",
"5. c #DCCCC3",
"6. c #D7C7C8",
"7. c #DCCDCA",
"8. c #DED1C5",
"9. c #DFD1CA",
"0. c #E1CEC4",
"q. c #E1CFC9",
"w. c #E3D2C5",
"e. c #E8D5C6",
"r. c #E4D4CB",
"t. c #E9D6CC",
"y. c #E6D9CD",
"u. c #EBDACD",
"i. c #F1DDCF",
"p. c #E4D5D2",
"a. c #E9D7D1",
"s. c #E7D8D3",
"d. c #E6D9D2",
"f. c #EAD9D2",
"g. c #EBDAD3",
"h. c #EAD9D0",
"j. c #ECDBD1",
"k. c #EDDDD0",
"l. c #EFDFD1",
"z. c #E8DAD7",
"x. c #ECDBD4",
"c. c #EEDDD6",
"v. c #EDDCD5",
"b. c #ECDBD3",
"n. c #EADCD9",
"m. c #EBDDDA",
"M. c #EDDFD9",
"N. c #EDDEDA",
"B. c #F1DFD1",
"V. c #F0DFD5",
"C. c #F1DED5",
"Z. c #F1DFDB",
"A. c #EEE0D6",
"S. c #EFE0DA",
"D. c #F3E1D3",
"F. c #F2E2D3",
"G. c #F5E5D6",
"H. c #F3E2D5",
"J. c #F8E5D7",
"K. c #F1E0D9",
"L. c #F3E2D8",
"P. c #F3E2DB",
"I. c #F4E3D9",
"U. c #F5E5D8",
"Y. c #F7E7D9",
"T. c #F4E6D9",
"R. c #F7E6DE",
"E. c #F4E4DB",
"W. c #F9E7D9",
"Q. c #FAE7D9",
"!. c #F8E7DD",
"~. c #F9E6DC",
"^. c #F5E8DE",
"/. c #FAE8DA",
"(. c #FAEADD",
"). c #F9E9DD",
"_. c #FBEADC",
"`. c #F3E5E2",
"'. c #F5E6E2",
"]. c #F9E7E2",
"[. c #F5E8E1",
"{. c #FBEBE3",
"}. c #FCEDE8",
"|. c #FDF0E0",
" X c #FFF1E5",
".X c #FFF4EB",
/* pixels */
"X.6.*.H ) 2.6.p.S.9.4.z.4.8.y.g...8.W ..F.y.u.u.A W <.] i.e.i.e.e.G.u.G.F.G.w.w._.u.H.H.r.:.:.:.5.w.5.r.P.y.5.y.5.P O.3.g.V.].g.",
"9.7.@.6.7.2.) 9.p.9.4.8.;.r.r.>.y.y.| ....Y ..-.] -.<.l.i.F.-.<.e.w.,.w.-.w.w.l.5.(.y.5.).j.5.;.5.U.0.;.P.w.` o.+.5.5.%.R.g.3.K.",
"@.9.S.n.m.7.4.d.2.O.*.A.v.P.r.5.>.w.F.y.l f | e.l.-.<.<.F.-.-.e.|.u.<.<.8.F.G.k.w.u.u.y.~.3.r.u.r.;.:.:.=.0.a.>.a.;.;.} 5.V.v.3.",
"N m F r @.4.d.O.4.2.*.*.;.y.3.#.<.| W ..| ] | A Y ..G.>.i.e.|./.-.l.w.<.y.|.l.>.u.r.^ Z w.;.+.).V.u.r.w.5.3.0.r.;.5.3.! %.r.y.K.",
"H c U S 2.F c & x g G o.} ! g h ] &.=.| W Y Y A F.Y f | ] W f l l &.&.Y Y l j A Y k T f i Y E A g B Y ! ^ ] ! F L Z ! ! ;.q.q.o.",
"z.z.m.`.S.6.*.>.r.;.;.5.3.3.] 5.G.G.l.<.l.l.<.>.F.<...l f l l l l W Y A ] Y W y.>.w.r.] } w.} +.j j R ^ C R Y < .   v ' v v E x ",
"p.d.p.z.d.m.6.O.2.K.P.o.^ 5.E Z F.w.-.-.e.F.<.>.<.<.F.w.e.G.|.|.|.|.G.u.T.F.F.F. X).5.0.0..X{.B.} r.r.5.j.U.y.r.u 0 T q..XZ.5.r.",
"2.*.9.4.4.4.d.9.9.+.>.r.r.;.Z o.u.<.w.u.e.-.=.>.<.u.e.u.] <.<.e.] [ w.>.,.k.F.W * g.w.g.5.w.r.0.0.:.e.v.:.+.3.u.+.j G 2.V.q.5.r.",
"7.2.7.A.4.A.A.>.5.d.r.a.g.5.] G =.y.w.u.>.] <.<.-.=.-.=.[ <.i.e.l ] -.<.8.] y.] I k.,.8.w.q.V.-.>.r.=.o.} 3.:.p.y.:.;.q.a.q.5.q.",
"c m 7.~ F m n *.&.O.o.>.>.^ Z Z W 8.<.=.] ] >.| &.w.-.] Y [ e...&.Y.,.-.|.|.l.l.T.l.G.y.w.y.3.r.;.5.w.o.w.>.0.0.;.q.y.a.t.q.q.q.",
"d F I > n b F T E C n B B B G ] > 2 , 1 > % 2 , f [ ..[ Y l W k f f | e.l e l k B l B 2 & < 4 j j Z Z A J G v v F C N G ! ' E C ",
"y.d.) ~ A.*.A..XS.A.H.g.5.5.5.w.&.&...>.-...=...-.e.i.G.<...=...] | <.-.y.A k =.W ( E A M M G B ] ;.}  .^ ! j h R 0 O O & - : - ",
"8.d.d.O.>.S.d.9.8.w.g.j.r.u.).U.>.l.F.F.F.F.l.&.<.<.e.l.i.<.<.J.|.-.G.<.F.G.|.F.|.T.F.|.y.;.r.j.;.0.g.0.{.j.j.g.v.5.5.r.v.a.r.a.",
"d.*.) 8.8.4.8.9.b.4.:.:.o.+.5.w.w.y.F.F.u.l.e.=.-.-.<.<.<.i.e.G.<.-.l.l.w.F.u.l.(.y.T.T.8.8.w.u.,.w.5.;.r.:.>.3.P.P.v.q.3.0.r.5.",
"O.y.*.4.| T A.d.;.&.,.r.3.w.u.5.y.>.<.u.u.w.<.<.w.l.<.=.<.<.e.<.w.w.,.<.u.w.>.u.<.,.8.k.u.u.u.^ 3.r.%.5.3.u.:.g.5.5.>.;.q.f.r.;.",
"E ~ *.) ( d F *.+.&.;.| W -.8.W ] ..<.<.<.l.<...l &.| <.G.e.i.<.=.>.G.<.l.w.|.u.>.F.>.k.W j e.r.u.u.e.5.K.u.v.P.P.q.#.>.p.g.p.r.",
"~ F ) | *.9.U j G { ^ } ` h * k R f  .y.-.W W A l l l k f , f 6 k f 8 9 ; W l l l _ l l J p l J A h a a u p S j y 3 4 c F d c ) ",
"O.8.4.4.&.) 4.*.a.V.u.}.w.- u C.u.w.t.>.>.t.e.,.e.u.<.=.Y Y [ ] =.] W k A G.Y ] <..._ [ Q....._ B & 6 0 G ~ g x F ~ ) ) T U F I ",
"*.) 4.( O.r.&.w.` G ;.e.~.} R B.u.u.w.,.e.w.&.<.<.e.F.e.<.Q.J.e.e.Y.J.F.<.G./._.-.<.<...<._ -.<.,.t.].P. XH.j.j.r.{.{.{.d.[.n.d.",
") *.| ) { ) &.;.5.;.0.^ ! ~.;.y.u.8.;.e.8.=.] J.e.e.F.<.-.i.-.[ <.e.<.G.,. .u.-.i._.-.<.-.-.=.=.%.3.0.,.5.5.Y.u.g.j.9.K.3.d.9.d.",
"O.5.O.O.*.O.>.5.+.%.^ E R t.C.y.8.>.8.y.,.e.8.F.u.<.i.=.&.<.<.<.,.w.u.,.e.e.,.J.J.<._ <.:.-.<._.:.J <.e.e.F.e.u.0.B.i.Z.=.y.r.t.",
";.+.>.O.O.*.~ } } G B g R +. .` 8.&.=.>.&.w.<.&.=.&.=.=.<.l.<.=.F.|.|.w.<.<.u.e.<.[ _ ..u.-.e.u.-...F.<.<.,.e.e.0.].Z.q.^ t.Z.t.",
"O.s.4.r.{ v ^ E Y T 5.%.t.g.o.} A 2 4 5 w f f j , ; 6 A ] W Y l W l l W _ ..u.] e A e.[ R u B V _ [ l f A Y -.&.} [ ` Z p V K Z ",
"3.#.#.>.*.5.P.P.K..X5.r.e.g.B.q.>.) >.8.T.A.l.F.] ] [ <.=.A Y &.] Y ] [ W Y f ] A l Y Y A h A Y &.[ ( A <.>.Y &.$.s s K ` K K K ",
";.5.2.4.{ ) ^ ;.K.+.5.u.:.g.,.e.A.*.A.A.A.A.A.A.k.l.T.l.u.G.G.F.<.l.F.u.e.<.e.F.u.F.:.>.v.Y. X|.<.&.e.<.,.e.[ [ $.l q.i.:.7 K K ",
"r.b.r.5.9.2.5.K.v.%.5.u.,.0.,.3.A.4.^.y.&.8.T.y.y.&.,.F.G.<.-.e.<.-...-.u.l.w.<.A.(.j.t.r.8.8.=.-.>.8.e.e.e.<.<.0.V ..$.K p s s ",
"5.4./ m ;.r.q.;.>.} ;.5.5.0.e.5.9.9.4.A.^.d.d.T.A.G.A.,.8.F.<.=...,.<.-...| <.|.e.F.A.A.d.w.d.4.=.e.,.-.;.=.=.+...K q.i.-.3.-.:.",
"*.9.*.I { { ^ ^ ;.+.$.+.;.{ =.^ 8.) ) ^.9.y.T.9.8.8.8.y.k.y.>.<.F.e.<.<.,.>.<.l.y.y.A.A.r.y.S.d.F.F.G.u.:.,.w.;.Z K %.0.$.Z.Z.q.",
"4 c F O.+./ B G Z N M h B g M p I *.U I U ) &.&.| ( ( m l A A W f f f l ..<.=.&.y.8.8.*.( { o.) B f W E C ] ] J ^ ( G G K %.a.o.",
"S.S.+.O.+.b.5.#.>.%.-.;.0.3.3.,.y.9.8.8.*.d.[.8.y.k.8.I j &.=.&...-.>.<.u.e.<.>.A.r.y.;.O.&.O./ n 9 ^ ] T ;.o.! ;.+.G H ! N o.' ",
">.r.9.+.) 9.w.{ g.0.r.g.B.B.:.y.A.y.9.9..X[.9.y.y.&.9.T.u.l.T.F.G.G.l.e.l.F.e.<.y.y.^.A.E.}.z.M.5.:.g.j.S.).n.b.E.}.M.b.r./ %.6.",
"r.Q U T ) ( *.} :.+.3.u.g.P.%.u.y.9.T.9.A.A.9.8.T.&.8.y.<.G.|.e.<.F.l.w.w.e.y.w.O.4.y.8.y.z.;.q.5.y.>.;.r.5.4.b.5.v.b.p.s.p.7.q.",
"T &.j F ^ &.` } t.a.K K _ i.i.C.b.S.E.j.r.T.K.5.F.y.e.<.e.l.F.e.<.e.>.=.>.e.<.8.t.>.F.>.u.9.>.r.5.$.w.r.:.r.v.5.%.r.r.p.9.6.n.s.",
"4.F U 4.;.w.o.;.} [ Z 7 X K 0...a.4.] o.w.:.%.0.<.<.-. .-._.l.W W u.<...| e.e.>.l.w.:.8.w.R.g.j.5.w.:.:.r.K.V.r.;.r.p.s.7.2.p.p.",
"d o & F *.y.;.` D Z Z s + s K J g X . < q f p 2 w j A Y W _ B 1 , k f l f j 8 f A Y } ^ ! T =. .} ,.} %.%.J C C O.] Q { 9.m.p.X.",
"d n u n 8.y.V.V.].e._ [ -.0.$.:.q.Y ;.P.>.r.{.0.=.-.e.<.,.,.<.>.G.u...-...Y l ..:.0.T ;.G =.:.|  .$.0.).>.} %.Z ' %.2.2.6.9.6.X.",
"8.S.F y ;.r.a.q.%.Z.0...-.<...i.} :.y.y.:.5.B.G.G.F.u.,.-.e.F.w.=.e.G.e.G.y.w.y.:.5.0.u.r. .;.h B e.R F 5.%.' T H ) 9.S.s.6.9.Z.",
"y.y.d.) %.q.t.].<.q.0.q.i.Z.t.$.0.w.C.Z.~.)._.P.<.,.r.G.G.G.u.<.F.G.G.] | ] 8.w.q.R.3.H. .;.r.;.C.y.,.t.0.%.5.+.r.{ O.p.Z.6.) 2.",
"9.&.9.9.t.C.a.q.C.q.C.Q.q.e.C.0.0.t.J.Z.e.e.u.,.=.&.8.F.A.u.k.T.l.w.y.>...W >.8.r.0.5.3.K.w.R.r.y.,.t.~.,.} %.5.r.o.@.4.p.z.6.9.",
"I U U ) +.' 0.0.%.%.0.0.} [ } T Z %.Y M =.r.=.=.,.r.u.e.r.(.|.F.Y.e.F.Y.l.w.l.l.:.w.y.r.q.;.r.v.0.t.~.0.-.0.5.>.p.w.2./ *.`.p.@.",
"E U { ' o.x Z G ` +.%.' :.` M h J W ..<.[ K [ e.&.B A n n W I ^ Y W k l g q T | } Q Z Z G H u v M h 0 , < q i 0 v Z X.O.$ i O.Q ",
"y.[.r.#.P.%.G y.0.Z.o.J t.C.e.}.<.` [ K $.Z.:.0.u.t.k.Y j ( &.>.8.&.j l ! } r.u.5.} H >.g.r.R g 0 f G ^ ^ J Y ! T ^ 3.2.c t / 7.",
"7.+.#.q.Z.{ t ;.q.' %.V.M ' t.q.W $.$.$.0.e.<.,.|.w.^.|.A.y.y.|.T.F.| 8.{.G.v.r..X].v..Xg.w.].v.u.C.j.u.A.U.v.5.;.5.z.M.`.`.`.9.",
"#.;.q.5.q.t.' %.t.:.q.0.M ! 0.3.:.i.e.e.C.e.t.C.,.&.*.=.y.|.A.y.8.k.&.&.g.r.0.v.~.V.r.v.3.%.a.V.:.e.j.:.;.0.q.>.;.r.p.#.H 7.7.~ ",
"L q.a.q.C.q.' P N  .a.L %.o.Z.].e.<.i.<.t.J.$.t.A.,.;.>.9.9.8.y.8.8.( &.y.w.q.V.g.q.7.3.w.3.o.:.:.;.:.,.5.:.3.0.r.5.5.7.#.z.2.X.",
"z 4 = : 3 = p S t u J } %. .$.} ..<.i.e.<.u.0.e.8.A.A.8.9.A.4.&.=.<.,.y. X^.a.V.P.v.~.q.v.5.o.r.y.0.,.3.r.a.3. .+.2.S.2.p./ z c ",
"D s a z i P o.%.q.{ x ;.q.y.K ` Z l p l l Z [ V T n d I ( m n U A A I I E E ^ ;.{ T ! Q ^ Z c v M ` :.+.} ] ! B Q F U d @./ z 5 ",
"].].q.a.Z.Z.! a.P.].{.r.a.:.0.i.0.K $.e.0.C.q.r.=.y.9.9.A.A.A.A.l.8.>.&.| |  .>.r.>.:.%.' C o.' 0.5.:.:.:.;.;.%.{ C / ) / X.H c ",
"q.q.M.c.y.7.*.2.) O.8.d.4.*.4.n.x.C.C.Z.a.%.a.x.0.V.c.P.S.[.d.9._.P.:.,.r.:.q.P.S.}.E.S.9.4.b.S.y.K.g.r.E.S.r.z.r.n.n.{.2.4.}.}.",
"L X.d.#.>.7.9.9.&.4.y.n.y.9.y.n.a.3.a.C.q.q.t.3.3.%.s.r.[.8.9.A.q.a.t.t.H.0.v.{.g.E.b.S.S.s.b.5.+.r.A.b.b.9.5.s.9.r.*.*.~ 2.m.7.",
"z ~ O.m ) ) ) 2.S.d.6.*.*.d.d.8.q.q.a.%.0.Z.%.r.5.7.7.r.9.9.9.S.r.B.w.5.r.+.w.].U.v.5.9.r.d.n.r.E.b.7.5.b.n.r.r.z.z.7.p.2.7.#.S ",
";.O.O.H U m F / ) O.*.*.2.4.O.~ %.` %.0.K o.o.' +.p.r.c.4.y.*.&.3.0.5.j.B.;.%.5.r.r.p.S.b.9.5.5.&.| ) ) O.+.2.7.5.#.{ 4.2.#.Q b ",
"4.@.9.`.O.O.) / ) 2.d.9.) m z d J ' L +.o.Q Z T 7.3.O.x B z C m Y J x  .+.^ Z ' ^ Q / +.{ U F ~ b g g b C n c g H F H @.@.2.) ) ",
"( 4.*.p.S..X>.4.m.m.z.d.9.4.p.m.{.0.3.{.V.r.E.q.>.>.3.7.b.p.r.S.{.y.` q.a.w.5.~.{.w.r.w.r.9.4.r.p.+.O.4.9.4.O.H / O.2.6.*.p.7.9.",
"*.n.( b / 7.) 9.S.d.9.d.m.S.S.`.y.3.+.3.M.a.r.g.3.0.%.r.4.7.*.d.~.C.:.w.V.5.>.r.g.r.f.r.p.S.r.5.b.r.b.S.s.s.[.}.d.s.9.1.) 6.1.6.",
"m U 2.) c I @.@.*.9.d.z.d.9.d.z.| L ;.;.5.q.5.>.o.3.r.>.9.5.r.w.a.y.0.%.V.>.r.v.r.v.S.#.+.S.S.n.S.4.4.9.4.4.p.r.O.@.2.6.2.@.Q ) ",
"Q D 1.1.X.Q 6.1.O.2.*.6.*.p.9.2.F ) z.5.+.;.%.3.;.3.P.0.q.a.Z.q.C.t.} y.t.0.q.w.p.5.S.*.+.d.[.E.d.2.*.O.1.6.6./ @.9.2.7.1./ 2.1.",
"! ' z i D z ' ' U 2.6.~ ) ) ) U U U F | 5.{ r.3.5.o.R N o.' ! %.q.%.^ $.+.%.:.q.;.Z O.r.;.5.#.m ( 2.*.2.N Q Q @.@.2.2.2.2.6.6.2.",
"6.].z.1.Z.p.6.' 7.6.) ~ p.6.2.2.2.m I *.*.;.+.Q p i s x ! Z p M V M M V M v u u j Z H y i < & < U L N 5 r b Q / L @.) r r Q S S ",
"6.6.' z.a.D 1.' z ~ Q H Q p.7.z.S.4.9.A.p..X5.4.r.r.].a.a.a.i.%.a.3.0.%.o.%.} o.g.r.S.r.*.9.[.E.p.p.6.1.z.p.@.H @.@.6.6.1./ S 6.",
"X.1.6.L L 1.1.6.1.@.1.`.6.1.@.a.4.{.&.) ;.;.;.2.g.w.v.+.%.Z.Z.%.q.,.e.:.,.r.0.r.%.w.;.{.S.E.*.S.~ @.d m 5 S r i N 1.6.6.m.7.6.m.",
"X.q.1.1.a.1.p.Z.@.@.1.1.6.7.z.1.p.) *.) O.^ 7.#.' 3.5.' q.t.0.q.3.5.g.w.g.r.5.>.r.v.#.! S.+.) O.*.9.#.7.@.1.@.1.p.1.1.p.p.@.Q 1.",
"! 1.1.' 1.1.@.@.6.6.a.6.1.X.1.z./ r +.2.O.2.r.;.+.q.a.' %.%.%.a.t.w.<.:.5.+.;.+.+.r.U # r.O.8.b.9.2.p.p.z.1.1./ / @.1.6.6.p.1.@.",
"N i t X.D r K z K %.L N D D z x d ( I ;.;.>.{ %.o.$.q.%.%.q.q.+.$.%.%.5.t.+.%.} >.&.4.+.H F z.d.p.@.6.p.z.1.1.@.p./ 6.1.@.Q c Q "
};
