/* XPM */
static char *xpm_[] = {
/* columns rows colors chars-per-pixel */
"64 64 256 2 ",
"   c #0C0000",
".  c #140000",
"X  c #1B0200",
"o  c #1D0B01",
"O  c #130B02",
"+  c #1A1305",
"@  c #230200",
"#  c #2A0301",
"$  c #220D03",
"%  c #290B02",
"&  c #340800",
"*  c #2B150D",
"=  c #291509",
"-  c #361608",
";  c #2C1B13",
":  c #271B15",
">  c #341B14",
",  c #382516",
"<  c #2C2110",
"1  c #3B3027",
"2  c #4B1B0B",
"3  c #48210B",
"4  c #462719",
"5  c #542B19",
"6  c #55321C",
"7  c #5A270E",
"8  c #672F1A",
"9  c #472B25",
"0  c #493427",
"q  c #583627",
"w  c #4B3833",
"e  c #583B36",
"r  c #542E25",
"t  c #663A27",
"y  c #753A2A",
"u  c #663D35",
"i  c #6C362D",
"p  c #411E22",
"a  c #4D4235",
"s  c #584539",
"d  c #5A4633",
"f  c #68422C",
"g  c #75442C",
"h  c #6B453B",
"j  c #634A3C",
"k  c #6C4C3B",
"l  c #654637",
"z  c #7B4C3A",
"x  c #754936",
"c  c #68513B",
"v  c #78523D",
"b  c #594942",
"n  c #524B48",
"m  c #6B4D44",
"M  c #664A44",
"N  c #754D43",
"B  c #695649",
"V  c #735344",
"C  c #7B5444",
"Z  c #7C554B",
"A  c #7B5B4C",
"S  c #765949",
"D  c #6A5955",
"F  c #7C5D52",
"G  c #755B55",
"H  c #6A4B50",
"J  c #6D6259",
"K  c #7D635B",
"L  c #7C6A5C",
"P  c #776456",
"I  c #776751",
"U  c #7A6963",
"Y  c #7C736B",
"T  c #746F69",
"R  c #813E2E",
"E  c #854A36",
"W  c #89543C",
"Q  c #955539",
"!  c #84482E",
"~  c #864D43",
"^  c #8A5A44",
"/  c #835B4B",
"(  c #8B5B4B",
")  c #865445",
"_  c #955A47",
"`  c #865D52",
"'  c #935C53",
"]  c #A55E4A",
"[  c #8A614B",
"{  c #9C624B",
"}  c #97654A",
"|  c #846454",
" . c #84645B",
".. c #8A655B",
"X. c #836B5C",
"o. c #8A6B5B",
"O. c #8B6654",
"+. c #946554",
"@. c #946A54",
"#. c #9B6B54",
"$. c #936B5B",
"%. c #9C6C5B",
"&. c #996555",
"*. c #8A735C",
"=. c #93725C",
"-. c #9C725C",
";. c #9C7759",
":. c #95714F",
">. c #A46A4D",
",. c #A6674A",
"<. c #A46C54",
"1. c #A36D5A",
"2. c #AC6D5A",
"3. c #A96A53",
"4. c #A57254",
"5. c #AC7354",
"6. c #A4725C",
"7. c #AC745B",
"8. c #A5795C",
"9. c #AC7A5D",
"0. c #AA7C54",
"q. c #B37454",
"w. c #B2765B",
"e. c #B37B5D",
"r. c #B87A59",
"t. c #AF6E4F",
"y. c #846B64",
"u. c #8C6C62",
"i. c #876C69",
"p. c #946D63",
"a. c #9D6F60",
"s. c #857264",
"d. c #8B7263",
"f. c #8C746B",
"g. c #8A786A",
"h. c #947464",
"j. c #9C7463",
"k. c #9C7A64",
"l. c #93746B",
"z. c #9C756B",
"x. c #937B6C",
"c. c #9B7C6C",
"v. c #957B65",
"b. c #8A7B74",
"n. c #947D73",
"m. c #9C7C74",
"M. c #977774",
"N. c #A57563",
"B. c #AA7562",
"V. c #A47B64",
"C. c #AC7B64",
"Z. c #A47C6C",
"A. c #AC7D6B",
"S. c #A4756A",
"D. c #B37C64",
"F. c #BB7D63",
"G. c #B37D6B",
"H. c #BB7E6A",
"J. c #B37464",
"K. c #A37D73",
"L. c #A97E74",
"P. c #AA7469",
"I. c #C27D6A",
"U. c #AC815C",
"Y. c #B7845D",
"T. c #9A826D",
"R. c #8C8178",
"E. c #9B8273",
"W. c #988478",
"Q. c #AC8165",
"!. c #A5826C",
"~. c #AB836C",
"^. c #A88669",
"/. c #B38365",
"(. c #BB8264",
"). c #B3836C",
"_. c #BB846C",
"`. c #B4896C",
"'. c #BB8B6E",
"]. c #B88A64",
"[. c #BA916C",
"{. c #A48373",
"}. c #AB8473",
"|. c #A48B74",
" X c #AC8A74",
".X c #A3847A",
"XX c #A58B7B",
"oX c #AD8B7B",
"OX c #AB857B",
"+X c #B48573",
"@X c #BA8571",
"#X c #B48B73",
"$X c #BB8B73",
"%X c #B48C7B",
"&X c #BC8D7A",
"*X c #B78579",
"=X c #AB927B",
"-X c #BC9275",
";X c #B4927C",
":X c #BC937B",
">X c #B7977B",
",X c #C38A6D",
"<X c #C38568",
"1X c #C28C73",
"2X c #C38D79",
"3X c #C88D74",
"4X c #C3947C",
"5X c #CB937B",
"6X c #C49B7D",
"7X c #C69376",
"8X c #D4967A",
"9X c #C6A07C",
"0X c #A88C82",
"qX c #B48C83",
"wX c #AC9384",
"eX c #B49482",
"rX c #BD9483",
"tX c #B69C84",
"yX c #BC9B84",
"uX c #BC9D8B",
"iX c #B5978A",
"pX c #B69B91",
"aX c #AE9590",
"sX c #BCA288",
"dX c #BCA292",
"fX c #BBA496",
"gX c #9B8883",
"hX c #C49682",
"jX c #C49B84",
"kX c #CB9B83",
"lX c #C49D8C",
"zX c #CB9D8B",
"xX c #C69586",
"cX c #D29D85",
"vX c #C59E92",
"bX c #C08E85",
"nX c #C4A185",
"mX c #C4A38C",
"MX c #CBA38C",
"NX c #C8A789",
"BX c #D3AB8D",
"VX c #D1A38C",
"CX c #C4A493",
"ZX c #CBA593",
"AX c #CCAB9A",
"SX c #C7A997",
"DX c #D4AB93",
"FX c #D2AC9B",
"GX c #D5A796",
"HX c #CCB29A",
"JX c #D6B29A",
"KX c #D5B5A3",
"LX c #CEB1A4",
"PX c #E0B097",
"IX c #DFC4B7",
"UX c #E8C7B9",
/* pixels */
"-X-X`.-X6X#X-X4X`.#X#.^ V.$XA.$X(.w.,XC.1.A.GX7X3X1XD.w.1X5X%.g - #.:.;.0.5.0.q.] w.3.3.w.2.F.4.$X#.G.A.f z 4._.(.r.q.<XY.r.,X7X",
"`.`.;.U.&X-X-X'.-XMX&X} 6.`.6.C.'.(.B.1.@.A.+XC.A.1X_.'.'.C.%.x 5 V.%.C.8.e.(.Y.2.J.] 3.2.7.D.3.9.<.%.+Xg x Y.7.r.Y.Y.<Xq.Y.7X`.",
"Q.-X`.~.`.`.#X`./.$X&X#.%.A.+.C./.9.@.V.{.;X!.}.V.#.^ C.).;.V.C q L.&.C.1.e.r.I.2.J.J.J.<.' 2.w.8.7.} V.8 f 1X9.,XY.r.r.>.q.[.U.",
"8.`.`.`.`.Q.A.Q.Q.$XjX@.@.Q.W ^ 8.} [ Z.}.z.o.v. X`.V.6.[ $.V.V t l...A.8.).G.@X2.' ~ ' P.G.G.1.C.).6.V.t t $XC.Y.4.0.Y.0.:.`.Q.",
"#X`.!.-XMXhX&X`.+X+X}.f z -XN.@.9.W N.`.K.z.K.K.}.#XA.t t %XrX` e K m *...k.j.j.K.' Z Z ..| v q / / F Z r Z qXrX&XD.9.7.W C z.OX",
"X.A k S | k k V t 4 3 & q / C / g 6 / h u V ..Z Z v [ g ) %X| 4 * < o < - = = % * = > * $ o O $ @ . . X X w u M Z k q q q s G G ",
"M B a w w 1 w w w ; w H U G b M c f S d 0 s b d I j j 0 , , = < a w 1 0 1 < , = 0 , < ; ; < + + = : , 1 1 n : + o = = 1 D J D a ",
"P L G G y.u.i.u.F y. .G G i.l.z.=.:.=.*.L R.J s.B L L X.g.T.g.U gXb.W.W.W.*.g.d.n.s.b.Y L L I Y L Y J D U T D G I L S s.R.b.T Y ",
"g 4.F.4.9.e.4.5.1.7.3.5.(.>.(.(.'.&XlX{.m G U y...P K  .X.z.m.i.f.m.0X.Xh.o... ...l.m.M.d.wXuXSXzXzXxXFXGXFXzXZXVX2XVXBXzXzXK.Z ",
"Q ,.t.q.(.t.,.q.q.r.q.q.t.Q Q ,.D.C.+XK.j M K L K  . .` V m Z V G ` ..u.$.$.$.O.u...z.qX{.eX=XjX$X$X$X:XzXzXzX5X3X_.cX5XkXGX}.u ",
"8 } C.<.e._.D.G.D.D.'._.7.} >.9.Q.8.k.|.j b Y L P s.g.X.P B G I F | ` ..k. X~.j.p...M.vXuXmX>X9XDXnXmX>XSXnXmX>X:X7XnX6XmXKX!.0 ",
"x ;.C.C.+XN.6.).D.B.$XC.<.1.7.'.Q.U.T.eXs M R.Y L W.W.g.T.E.g.d.u.$.=.j.!. X Xv.c.o..XuXsXHXsXsXNXjXmXsXSXsXmXmXJX>XjXnXAXHXm.s ",
"^ C.%.6.).B.B.).G.C.$X9.{ 7.7.D.7.Y.C.%Xu j M.i.K .X.Xj.T.oXK.u.c.E.|.|.|.|.|.T.T.| x.dXsXSXNXNXnXyXyXAXCXuXuXAXFXrXrXvXLXLXm.D ",
"g D.7._ ' <._._.D.w._./.>.9.F.F.5.r.C.#Xq m l.f.u.0XqX}.}.oX{.h.T.=X=X=X|.|.=XXXXXV o.AXSXNXsXNXmXMXMXKXZXlXrXAXMXlXzXzXFXLXm.M ",
"E 7.<.<.,.! _ w.5.>.,.r.{ ,.7.r.q.0.9.^.q V  .n.x.c.oXeX%XOXoXOXk.{.}.!.^. X;XoX%XN ..FXDXMXjX9X].[.kXBXNXNXVXBXMXVXVX6XGXFXm.j ",
"E 7.{ ,.w.t.t.Q ,Xw.,.<XQ ! t.w.q.4.#.Q.q l M d.v. .h.%XoX!.~.}.~.}.~.Z.^.#XeX&X%XN ` lXmXBXjX-X/.7XVXjXVXNXBX6XVXkXjXhXDXFXc.V ",
"W 3.3.3.q.,.,.3.E J.7.{ _ Q q.7.5.>.@.k.6 l l d *.O.V.#X XQ.V.-.k.:.;.T.!. X%XoX%Xk N ZXKXnXmXmXjX6XDXnXBXnX>XDXJXkX&XhXFXAX{.c ",
"z %.%.6.D._._._.&XhX@XA.S.6.7.).Q.#X~. X4 0 0 S o.O.O.:.O.O./ C v c v | =.o...d.l.6 e wXuXV |.HX>X>XjX:XNXSXuXmXlXZXvXqXOX0Xg.B ",
"= , , 9 d t l k 0 0 j e r 0 - 3 - > r 0 w * O o * * - = @ @ $ . o o . . $ o X * ; * . ; ; . 9 $ > 4 4 , , > ; 9 9 e G G U Y B + ",
", : o , - . . o $ ; s a w q = @ @ X . w D D : * * > 9 4 > * ; * * 4 > X $ * * > M 9 . $ . . X . . X . . X X $ 4 e e M G U b.U 1 ",
"R.s.d.|.|.*.v. Xp.M , 4 r V O.) t r q q ` e e h N Z ..Z.c.d.L S =.;X Xh.K.OXZ..Xm. .| eXk.$.V C O.$.| k | !.{.K.z.p.p.p.p.m.W.g.",
"yXsXnXmX>X#X:X;X&.4 r Z / +.B.<.+.) z ` Z Z h / ~ ~ ' A.%X Xo.f ^.#X`.$X$X).A.-XhX#XzX$X7XVXkX4X+XcXkXz @.MXzX~.G.*X&XqXrXrXeXeX",
"C.Q.G./.w.D.1X7.) 2 8 3.^ _ ] ] _ y R _ ' ~ ~ y E Q { 7.).#XO.6 [.].(.,X,XF.<X5X3X(.3XF.8X3X<Xr.{ J.7X7 g '.$XD.J._.2.1._.$X`.~.",
"2X$X$X3X,X3X5X_.&.& i _ R ] ] Q W g E ' i y ~ R R _ 2.<.8.#X=.6 4.q.<X3X,X,X3X<X3X8X5X,X<X,X8XI.r.7.3X7 W 1X_./._ J.2.3.2XkX+X#X",
"jX%X+X@X2XG.*Xa.( & 8 a.) 3.I.] ! ) ( ( i ~ ' ~ ~ R 2.P.j.{.v.A 7X9._.7X_.'.5X2XH.xX8XH.5X3X3X,XG.).xX7 ^ xX+XN.G.B.&.H.bX*XrX%X",
"uXrX%XN.C.V.%X*X` # p ' ' <.2._ +.z u / / ` ` ' ' ~ 2.G.Z.{.d.k 6XD.7.).G.$XxX1X1X5X5X_.8X5X3XF.H.+X+X3 ( zXL.&.G.P.P.L.G.*XMXlX",
"%X>X:X~.-X:X}.%.N % r N z ^ } <.D.&.z z ~ ' ) ^ ] _ ' 2.+X}.h.k `.e.9.<._ 7.3X5Xq.F.,X<X<X,X8X3XB.$X/.7 ^ 4XC.>.2.J.H.I.D.`.hX}.",
"@.;.`.;.Q.Q.V.V.@.& 5 ) ^ 7.5.>._ &.( E z E E _ 3.J._ <.).).k.x 5X5.5.<Xw._ q.8XI.I.,XI.t.t.F.r.Q 7.3X2 ^ $X).H.B.H.,XH.G.D.C.8.",
"[.8.4.} Q.9.1.@.[ @ 5 +._ { t.>.,.} #.<.#.z ! <.,.w.t.4./._.C.g 5.(.r.,.t.I.q.! <Xr.w.q.q.r.r.,.,.2.cX2 _ 5X1X_.3X8XI.J.<XH.7.).",
";.).2XD.^ g 1.L.j.- r L.C.4.(.5X1XC.N.-.A.N.A.#X9.$X1X_./.#Xa.u $Xe.C.$X7X$X_.1X5X5X3X8X8XcX8X3X$XC.5X2 #.zX5XG.3XbXH.1.G.C.+.V.",
"$.S.S.a.z x qXqXu.p # u ` ) ( E C m m e B y.m.h.z.=.Z.$.Z F M 4 l Z $.h.j.p.S.oXz.K.N.S.<.6.+.-.p.u.p.5 H l.L.M.L.L.OXS.p.m.h.v.",
"h m u u q 9 G > > e 9 p p # # # @ . * * $   o o % . % % X > > $ X 4 j Z F N M l V Z u l u v u N H G D 0 * @ 9 9 r p h r * w B b ",
"H i.u. ...M w 0 e e H D M e j k q j s B D U i.9 u G u.N l X.d.x.o.` o.j.S.K.}.}.k...d.oXz.m.M.z.M..XM.i.b.J y.p.i.u.H  .y.K H D ",
"p.vXCXtXuXdXdXfXaX0X0Xl.u.{.oX|. XZ.h.X.i.aXIXLXSXvXJXBXSXKXKXHXFXmXnXmXlXmXZXZXHX*.| iX0Xl.i.W.M.aXM.0XT.XXE.wXqXqXp.m.aXaXi.U ",
"^ Q.^.;.} :.U.=.z.j. XQ.V.-XU.U./.Q.^.;.` 0XHXsXFXjXBXBXBXBXnXsXNXtX>XsX=XsXuXtXHXc d |.0Xs.P f.v.!.{.*.|.U.|.^.Z.>Xk.-.>X;XL s.",
"} 9.].].U.U.[.`.-XV.`.Q.].[.Y.].U.U.].:.C  XJXnXZXhX9XBXNX6X6XjXZXsXsXmXsXNXsXsXsXc c T.R.x.s.f.v.#XT.k.*.=.=.^.!.#XV.v.|.T.I X.",
"W } U.[.].].>X[.9X`.#XQ.8.U.0.Y.Y.U.].8.[ |.IXHXmXnXnXNXhXrXnXnXsX>X>XsXsX>XsXsXHXS I X.X.g.W.E.XX=Xh.T.v.*.*.|.uXc.h..XE.W.I I ",
":._.7X[.[.6X9X[.~.#X>X-XQ./.].0.Y.Y.).^.A g.HXsXHXHXjXnXxXvXZXmXNXtX>XtX>XsXsXsXHXc I T.*.d.x.XXuXT.i. .=X*.x.c.c./ u.L.x.T.P L ",
"&.2X-XQ.`.-X:X+XP.2X&X+XC.B.3X/.<X<XC.A.C o.UXKXKXSXyXZXvXvXAXxXZXjXyXmXsXmXHXHXCXl $.XX{.c.K.0XqXqXu.0XW.XXf.m.u.| z.M.f.M.L R.",
"G.kX2X'.1X).A.@XA.qXA.2XG.&.(.9.J.F.6.+XA F IXAXLXFXlXFXFXbXGXZXZXmXmXZXZXmXdXsXSXl u..Xm.z.m.K.K.0XL.K.iXm.m..XOXK.M.p.l..XK m.",
"B.1X1X8./.'.'.).H.*XbXG.2.J.F.e.r.I.w.5Xz v IXNXKXJXBXPXJXNXJXGXZXAXZXSXfXfXfXAXfX0 X.l.m.l.u.K.*XzX&XZ.%XZ.L.K.L.` S.L.S.S.z.p.",
"&.S.~.`.$X#X-XxXL.S.L.G.z ~ 7.0.q.3X-X`.v A JXJX9XJXJXPXBXNXJXIXZXAXSXSXfXIXSXfXSXn X.G i.0Xl.N vX+X}.OXV q Z V u Z u.S.OXp./ l.",
", > 4 d d d m I w G  .K M r f f v x l v B , B T.I |.=X=X=XT.s.W.x..XW.n.W.XXW.R.B , B D s.W.d.S d ` x.P >   + O F K G K f.E.U , ",
"b 0 a s a 1 0 a H U n n K H 9 . X . O O < O O + = , a d d j 0 a B I I B B B I J a O o   o , , = . . = a 1 < O   : ; = * : b Y a ",
"T J T Y Y Y Y Y R.Y n H D G Y s 0 1 1 s s s a a P B B B B g.T R.T.T.T.g.g.*.g.W.Y I B , 0 A d.X.B 9 D gXY T n + O : : n Y T T J ",
"P J J L L J B s J D D U D m x.iXv.G B n.R.L B B l.| p.d.L L w y.eX>X%XeXsXtXwXeXwXsXSXiX=X;XrXvXCXaXfXb.U b.gXT i.Y i.i.P M D T ",
"z.{.OX!. X XE.!.p./ u N O.' _ _ ).jX+XS.L.bX}.~ ] ,.J._.+X%.2 / C.C.C.).%X&X}.}.|.+Xj.A.$XH.G.H.6.P.{.o.FXvX0XqXLXaXrXqXZ.rXuXz.",
"C.+X/.9./.U.C.`.B.~ y i 8 W _ 8 W 9.{ E ' _ 3.3.] ] ] 3.H.} # [ ).5X2X_.'.$X&X+X%XzX$XB.D.G.$X_.J.G.'.y a.L.H.a.' a.+X2.N.A.N.Q.",
"/.].].].].Y.Y.U.4.W z ^ ( 1._ } _ Q } Q W W E Q q.I.q.} @X%.@ / C.`.'.$X&X$X:XjX&X-XhXQ.A.Q.2XQ.).).G.t 8.).`.Q.9.`._.7X-X/.).).",
"U.U.Y.w.q.Y.<X<X4.v x %.6.C.5.{ { } >.} ^ 0.>.5.r.Y.t.{ G.Z.& N 8.D././.`.4X1X-X-X&X%X$X`.C.$X'.B.`./.g #.8./.[.[.7X6X'.kX/.1XC.",
"].U.Y.Y.0.Y.(.9.4.g t A.S.B.1X2.F.9.9.<.>.4.4.5.5.(.t.#.&.k.& N G.`.5XC.6.&X4XxX4X).6.$X).A.).+XG.$XC.W /.1X1X6X$X1X7X`.5X@XkX$X",
"'.8.e.'.(.,X,X5.$Xg x +X&.#.G.<.D.>.#.8.8.4.4.D.w.F.w./.&.P.p Z 8.6.2X).`.4XG.a.%XA.[ S.C.).@XC.N.Q.@.} $X4X`.`.-X&XQ./.C.).+X@X",
"4X4.<.D.e.5.e.6._.6 h S.$.S.B.1.).2.{ 6.N.1.B.$XG.2.{ G.+.L.r N B.1.7.&.&.S.V.}.G.&Xa.A.6.D.@X6.@.}.-.k.>X>X^.`.#X^.^.#X!.;X X;X",
"+X#.4._./.C._.$X+Xt u p.j.&XA.%.B.B.@.( ( &.B.6.1XD.2.+X+.z.e ` a.N.&.%.A.~.L.A...+XN.A.@.^ 6.( O.k./ +.%X-X!.!.^.!.#X}. X Xc.V.",
"O.) ( %.D.).+X&X%XC q N k / x t z [ / C Z O.k.$.%.%.%.$.h Z e u.%XA.f x S.%XOXp.z.}.j.A.N.) 8.6.S.A.) z S.G.).H.&X4XVX*XG.%XA.%.",
"Z k 5 3 t g t q h 9 . X X . @ @ X # # & % @ & @ & & & # . - % 9 C Z.k u Z m F F ` h 5 h z 2 x E W / 5 & 2 7 t g t ) ~ x q $.) C ",
"S o.[ l 3 - - % 4 l b S B l 3 , , 6 5 j q , 9 q 4 6 6 4 4 e s w 4 4 q l m B k j j V q l v ) z v v k C q 3 3 3 q 5 5 q 6 v V l | ",
"0XpXCXCXhX>XmXuXCXSXsXfXfXSXsX>XtXtXv.0XW.n.x.o.h.v.c.{.0XwX0Xn..XE.c.g.L P s.g.P L | |.>XyX>X-X Xk.!.N.:.-.-.N.V.V.Z.j.Z.d.S XX",
"0XsXsXdXlX;XtXtXdXfXAXaXXX=XsXmX=X=XT.W.g.L L X.o...o.*.g.i.P D A S B S P L U K P m c !.!.^.;.} #.} 1.7.B.C.2.B.4.B.G.a.A.&.x yX",
"aXfXCXCXsX;XuXuXCXfXfXfXuXsXSX>X>XsXwXfXT.L g.g.T.k.j.*.I S B S S V G L b.b.L G U j l OX~.Q.V.8.#.{ B.$XH.H.F.H.2.G.H.N.P.&.u rX",
"0XLXSXsXjXyXZXNXuXpXAXCXdXmXBX>XNXCXuXCXW.d.x.d.E.oX Xv.o.o.d.u.u.h.l.f.n.s.U y.f.M l %Xk.C./.'.#.} 4._.(.D.D.D.7.D.).%.N.%.t  X",
"XXKXHXuXtXjXZXZXeXlXAXZXyX:XVXBXVXZXtXmXh.X.E.x. XoX X!.}.OXc.X.E.XXm.n.W.W.f.n.n.S j eX8.C.9./.9.#.} ].<Xr.(.(.e.D.).6.V.%Xv eX",
"XXLXSXyXzXzXGXJXZXMXxXvXBXVXcXcXnXDXZXSX .F OXoX%X X`.+X%X Xc.$.OXoXS.K.aX0Xi.i.i.h t %XV.D.5.(.e.4.{ r.F.q.F.I.w.,.3.3.1.A.f #X",
"tXLXCXlXMXjXzXBXhXZXZXJXzX5X'.cXkXGXGXAX| A {.oX;X+XQ.%X+X{.!.OXz.eXqX0XaXW.f.m.i.V q +XC./.5.e.q.3.,.(.q.] r.I.,.E _ <.#.G.g &X"
};
