/* XPM */
static char *Design_sem_nome1726493726[] = {
/* columns rows colors chars-per-pixel */
"64 64 48 1 ",
"  c #43484B",
". c #454A4D",
"X c #3F4447",
"o c #88DCFF",
"O c #3D4245",
"+ c #414649",
"@ c #42474A",
"# c #363A3D",
"$ c #404548",
"% c #484D50",
"& c #3B4043",
"* c #4A4F52",
"= c #4D5255",
"- c #33383A",
"; c #292D2F",
": c #2F3336",
"> c #2C3032",
", c #313538",
"< c #3A3E41",
"1 c #01C4FF",
"2 c #383C3F",
"3 c #474C4F",
"4 c #52575A",
"5 c #151B1E",
"6 c #1C272B",
"7 c #89DFFF",
"8 c #65D7FD",
"9 c #058CB6",
"0 c #619EB5",
"q c #46D1FD",
"w c #56889B",
"e c #21C9FC",
"r c #70B3CE",
"t c #053847",
"y c #03B7EC",
"u c #04495F",
"i c #047395",
"p c #80CFEE",
"a c #0DA7D5",
"s c #304E59",
"d c #577077",
"f c #045974",
"g c #3D616E",
"h c #7E9093",
"j c #D4F5FD",
"k c #C9E9EF",
"l c #CCECF4",
"z c #CAEAF1",
/* pixels */
"*===*%.$+ 2:#&OO2>2+$X$XX$OO&OXX$+@++XO<>;>;>-+%%. 33.  .3 <&OO.",
"%*==.  XX<,#*==4=@-&+$XXOO<<&OXX$++$+$XX#;2-& **%.3%. @+@  O<&&O",
"&&$@&<O$&,,X=4*.. $2-&OO&&22&OOX$$XX$$X+X>:2& .%**=. @+XX+ +&&22",
"##2<---#-:2<  OOOX$O,:-<<<&OXXOX$+XX$$$+$::,,2&X$  $$+++XX +XX&2",
"#--#-#<#:2X@O&<&OXX<,2#:&OXX$$XXX@+XXX++#>&<:-<<<<&OX+$XX$@@++XO",
"&-#<<&$#-XX+@<&O&OO2:#&##O$$++XXX$@@$XX#;><X>,<22<<&OXXX$ @  .@X",
"&#O&O $:# OX..@$O<<-,22&&<+++$X$+@X&-::-2:>#:-O&&&&OOXOOO+   . +",
"&<XX$%&>O@XX+@$OO&2--2&& &<@@+XO&->>:&.=3O-;;,OX$$XOXO&&&O$X$. @",
"&<+@ 3,,@@+XO$$&&O&&#&X@%.#&O#:>>,<@*== ++$-;>&+ @+$$XO&&O&&$.. ",
"&-+.*O;2$$ .@+@XOXO+.  %%%$:>>>#.==444=.++ O#>:X  ++@+XOOOOO$ . ",
"O#X%*->2XX$%*%%=%+ **3%**%@->#O%====**==* +$O,;-  @    +XXXX ..@",
"O2&X-;>2OXXXO@  %$%==*%=*.#,>-3*.**%.. %4=.++#;>&@+@.. @$XOX ..+",
"&2O,>#,#++O<22<<2X*===%3%$-:O@.*. .**3@@=4X$X<>;:O+@    +$X$ . +",
"&:,:#.+# $&<<&<&#O@*==*.@2>-++#$3.@3=3+ .<#X&&-;;,&. $+ . ++@+$$",
"#>>#X==#$&OO&&<<#XO.==*.2;>2X 2;6@ @. +@ #2O&<-:;;,&+$$.33 @+$XX",
"::#O %=&&&OO&&&OOOO@=*%2;;#,#&-55;%  +X$$-<&<2,X2>>,-#-2&X+@++X2",
",<$+&<&O2O<<2#X@O<<&OX<>;><@3O5fa6,. @X$O-&&2-#X+<:>,-,,---#22-:",
"X@@X&&&X2#< +&  X&<##,;;<$O@%;ty8w5X3%@XO#&<2#&+**$->:----,#,>>-",
".@$O++OOO,$%%*3 $XX#>;,X$O+.#59eoog6.*= 22OO@@<%*=* #>:,:::>>:<@",
" +XO .$O$#-.*%= @ @2>-@$O3=%5i1qo7p::==*22X   X**==*.2:>>;;:2X @",
" +$X@. $O-:2.%*   X:,+***44:ty18oo705 4=-2X   *===== @<>;:;&@@ @",
"@+$XO . 2-%O,& ++O#:O*44443591eooooog5##,2X.  =4==4=O&2:>2-&+  @",
"@$XOX.. -X=%->,-##,#.*44=*6f11qooooor65>,#X@ @*4444=O<#::&2O++@$",
"@$XOX  X#%%%32>---:O .**=#6a118ooooo7w5#2<&++O$%33%@<2->,&2@ +XX",
"++$X$ .<&%%%%3<::>:X 3*==5i11eooooooop26##-##,-#----##,>-2<   $X",
"+$XX$ +- .3*%..O>;-$ =44,ty11qooooo77705;:,:,:,#-,,-,::>#2#  @$$",
"+$XXXX2#3@ %%@..#;#&O*==s9111qooo7r0r0ps5:>>>:,,-,::>;><==&X +@+",
"@ @&2-:X $+ @ ..#:22<.=+911118oooor66d705$ <,>;;;>>>>, =*% & @@+",
" @O2#2,O +@    @-#2&3=359111eooooor65wops>444*+<>;>>>$**%%*XO  $",
"2-2++.<:X @    O:-#$3%;59111eoooo70w0wo705.*44=.X#&#2%*==** <@ O",
"#X +X X:< @ @@+&:-2O.>;d6a11qooooooooooop:#=4=+@+:,:@*====% &<2,",
"  @$+. ,- +++$O&,-##66hz4691qooooooooooood644*$..>;2..3*=4* X>#X",
" @@+ ..#:$$OOO&2>>::5hjjkdu18ooooooooooo7r5=4. %.>>+@+ .=4* +2@+",
" @+@   O>#O&&&<#->>:56hld6918oooooooooooop-O= .%@;,+++ .3%. X2@$",
" $X+  @$>>2&O&#2$&>>>5;h69118ooooooooooooog;...%$;-XX .3%333.2+@",
" +X$ @$2>;>,OO#&@@2>65fti1118oooooooooooo7w5 3%%&;-X ..3***33#X+",
"@ +$  O::->;:2#$   #5tyy11118oooooooooooo705@%*%<;#+   %==**%--+",
"@@@X+$->,&#>;>,X.3% 5u1111118oooooooooooo7r5O.**<;#@@ .===***#:X",
"@@+X$#>;:&X,>;;>2++&6u111111qoooooooooooo7r5O++3<;&@@.*4===**<;#",
"+$$$<::,;,X#:,;;;>:>5t111111qoooooooooooo705X+$ 2;&.3*==4====&;:",
"#XX&-:& <>#,2O->:>>;66y11111eoooooooooooo7w5 +$O-;&*====4444=&>>",
":#O-:-X@.X:,2 &&O#;;;591111118oooooooooooos;.X$<->,O%===4444=#;:",
":,-,:&XO.=$:X*O@3<;,-5u111111eoooooooooo7r6& 2&,::;-%4444444=-;>",
"::::#+$XX. -,<X==->,:>59111111qoooooooooog6..<:>;:;;,&344444 :;;",
";>>:O $X$ @<&#<=$:::>:6ty1111118ooooooo705<.$-:<X&#;;>:&*4*O-,#;",
";;;:X XX+ X 4*,#-#22#>,5uy1111118ooooo706>@O,>&.++@X->;>:2#,,&X2",
">;;:O+O+ X2 %%+,#XOOO:>>5ua111111q8o7ow6; &,:2. +$XXXO->;;>>#O#:",
"#<#>:2$.@#O@  3@&@ O<2$O,56ia11111ee0s5- &::X@   $X&& 3$2:;>O<::",
".3=X:;-2,@*...3% 2#,O%=44.>56ui99ift56+3<,,$.@.. ++XO 3.. X::-&$",
"==44*&>;-O 33...X->X3O&+%==*#655555;&.3&-2.. @. @++X.... ..-2%*=",
"=%3*==3<-:,O33.$,:$= &&$  .=4*<>;>,--<<,2....  .@+XX33.. @X<*4==",
".  @ %==.&,>-<#,:+4=$<<+ @+.**=*&:>;>,--.%.33... @$$ %%3. O.==*%",
"3.....3%=*.&:>>>244 O&<  @$ .@ %%.+-;;, %%3%%33.. +XX %%.OO**. .",
"%3%%%3..3**%#>::#*%OO<<. @$$$+@@$@.O,;&*%***%3%3..@$$X@ $<3*%3 .",
"*%%**%%%3.+O#,>>-OOOO&<O +OO$+++@@$&#>&%%***3..3.  +$++X23=*=*%%",
"*******%.+$$O2:;-&OOOOO<<<&X$@@@  +O<:&%****%. .@++++@ #+====*%*",
"*******%.+ ..O->,&$O&+$X&<O$+@   .@XO,2%%*==*.  @@    O2%%***%3%",
"*%***%**. .3.X#>,&$&<$$$$O$+      @XO-#3%%===3....... < *%%.3%3*",
"*%****=*.@...X#>:O@XOXOX$XX+       X&,#.3%*=*%333... 2O%%*3.3%%=",
"%%***==*. ..@2,>,$ @$XOXOOX@  @+   X&:-.3%%*%%%%%..+2@.. 3. ..%*",
"*%**===*.   <,:;:X  +@XOOOOOX$@  . $O:>O..%*%.....X#.4=%%@+ ..%*",
"%**%=44=3  @#,,>>X @@@+++XO&OO@.   +O,;>< 3%%    <# =*.%*%O$ .%*",
"%*===4=*...O,:O&>&  @   @$XOOO$    @X&,;:2&&+$X2#&%=*...%*.&+ **",
"%%*===*3..+#:;#2;# @+ @@@+XOOO$ @   +O&,;>;>:>>#3=*%3. .%*.OO$.%"
};
