/* XPM */
static char *Design_sem_nome__2_1726493726[] = {
/* columns rows colors chars-per-pixel */
"64 64 32 1 ",
"  c #FF7FB0",
". c #43484B",
"X c #3E4346",
"o c #414548",
"O c #3B3F42",
"+ c #484D50",
"@ c #454A4D",
"# c #323639",
"$ c #373B3E",
"% c #4A4F52",
"& c #2F3235",
"* c #2A2E30",
"= c #4D5255",
"- c #FF80B2",
"; c #505558",
": c #E0739D",
"> c #F079A7",
", c #C56689",
"< c #585B5D",
"1 c #AC5D7A",
"2 c #A38C95",
"3 c #C47292",
"4 c #5E404B",
"5 c #060606",
"6 c #814C5F",
"7 c #694552",
"8 c #4F3C44",
"9 c #94536B",
"0 c #ABA0A5",
"q c gray11",
"w c #C6C5C5",
"e c #767475",
/* pixels */
"%===%+@oo.$&$OXX$&$oooooXoXXOXXXoo.oooXO**&**#o++@.++@..@+.OOXX@",
"+%==@..XXO#$%=;;=.#OooooXXOOOXXXooooooXX$*$#O.%%+@++@..o...XOOOX",
"OOo.OOXoO##o=;%@@.o$#OXXOO$$OXXXooooooooo*&$O.@+%%=@..ooXo.oOO$$",
"$$$O$$#$#&$O..XXXXoX#&$OOOOXXXXXooooooooo&&##$OXo..oooooXX.oXXO$",
"$##$#$O$&$X.XOOOXXXO#$$&OXXoooXXo.oooooo$*OO&#OOOOOXXoooXo..oooX",
"O#$OOOo$#oXo.OOXOXX$&$O$$XooooXXXo..ooX$**Oo&#O$$OOOXXXXo....@.X",
"O$XOX.o&$.XX@@.oXOO##$$OOOooooooo.oO#&&#$&&$&#XOOOOXXXXXXo...@.o",
"OOXXo+O*X.XXo.oXXO$##$OO.OO..ooXO$&*&O@=@X#**#XoooXXXXOOOXoXo@..",
"OOo..@##..oXXooOOXOO$OX.+@$OX$&**#O.%==.ooo#**Oo..oooXXOOXOOo@@.",
"O$o@%X*$oo.@.o.XXXXo@..+++o&*&*$@==;;;;@oo.X$*&X..oo.oXXXXXXo.@.",
"X$X+%#*$XXo+%++=+o.%%++%%+.#*$X+=;==%%=;%.ooX#*#.......oooXX.@@.",
"X$OX#**$XXXXX...+o+==%+=%@$#*$+%@%%+@@.+;=@oo$**O.o.@@..ooXX.@@o",
"O$X#&$#$ooXO$$OO$X%===+++o#&X.@%@.@%%+..;;XoXO&*&Xo.....ooXo.@.o",
"O&#&$@o$.oOOOOOO$X.%==%@.$&#oo$X+@.+=+o.@O$XOO$**#O@.oo.@.oo.ooo",
"$**$X==$oOXXOOOO$XX@==%@$*&$Xo8474oX..o..$$XOO#&**#Oooo@++..oooo",
"&&$X.+=OOOXXOOOXXXX.=%+$**#89,:>>:,94Xooo$OOO$#X$*&#$$$$OXo.ooo$",
"#OooOOOX$XOO$$X.XOOOXXO***6: --  -- :68XX$OO$#$XoO&&#######$$$#&",
"X..XOOOX$$O.oO..XOO$$#**8, -       -- 14O$OO$$Oo%%o#*&#####$#&&#",
"@.oXooXXX#o++%+.oXX$&*&7:::>>>    >>>::,4$XX..O+%=%.$*&#&&&&*&O.",
".oXX.@oXo$$@%+=....$*#7:>,12023  32021, :4X...X%%==%@$&****&$X..",
".ooX.@.oX#&$@+%...X&#4:- 30e<20330e<203 -34.@.%===;=..O**&*O....",
".ooXX.@.$$+X#O.ooX$&8,--:2.o55e2e%.55<2:--,4..=;=;;=XO$&*$#Oo...",
".oXXX@@.#o=+#*##$$##1-  3<#w*5q0e*w$5q2:- -1o.%;;;;;XO$&&O$Xoo.o",
".oXXX..X$++++$*###*9   -3<5qqqq0e5qqq523- ->6Oo++++.O$#&#O$..ooo",
"oooXo.@OO++++@O&&*4>-  -:2q555%02q555$0:-  -:8#$###$$$#&#$O...oo",
"ooooo.o#.@+%+@@X*&,-    >22#q<w320Oq@w2>   --1#$#####&&&$$$...oo",
"ooXXXX$$+..++.@@#6       30www2::2www2:-    - 6&##&&&**O==OX.o.o",
"...O$$&X.oo...@.4:-       :333>-->333:        :8*****#.=%+.O...o",
"..X$$$#X.o.....X1-        -  -    - -          9*****o%%++%XX..o",
"$#$oo@O&X......7>                              >4#O$$+%==%%.O..X",
"$X.oo.X&O.....8,-             ----             -1&#&.%====+.OO$#",
"...oo@.##.oooX6>              :,,:             ->4*$@@+%;;%.o&$o",
"...o.@@$&ooXXO,-              111,              -1&o.o.@=;%.o$.o",
"..o....X&$XOO7>               -- -              ->7ooo.@++@.X$.o",
".oXo...o*&$OO1-                                  -1OX.@+++++@$o.",
".oXo..o$***#8:-                                   38.@@+%%%+@$Xo",
"..oo..X&&#**4>                                    >7...+==%%+##o",
"...Xoo#&#O$*6-                                     6o.@===%%%$&o",
"..oXo$&*&OX#9-                                     9X@%;===%%O*$",
"ooooO&&#*#X#1-                                    -1.%=;;;;==O*&",
"$XoO#&O.O&$&1-                                    -1+==;;;;;=O*&",
"&$X#&#X.@X&&9-                                     9@=;;;;;;=$*&",
"&###&OoX@=o&7>                                   ->4+;;;;;;;=#*&",
"&&&&$ooXX@.#&,-                                  -1*#O+;<;<;.&**",
"*&*&X.oXo..OO7:-                                -:4***&O%;%X##$*",
"***&X.oXo.X.<+6:-                              -:6XX#**&&$$##OX$",
"***&XoXo.X$.++o7, -                         -- ,7XXXXX#***&&$X$&",
"$O$&&$o@.$X...@o863>---                  --->,6oooXOO.+o$&**XO&&",
"@+=X&*#$#.%@@@@+.##49,:>  ------------  >:,97o.@.ooXX.+@@.X&&#Oo",
"==;;%O&*#X.++@@@o#*X.O876911,,,,,,,1119648.o..@..ooo@@@@.@@#$+%=",
"=+@%==+O#&#X+@@o#&o=.OOX.oo@%+O&**&&&$$#$@@@@..@.oXX++@@..oO%;;=",
"@....+==@O#&#O$#&o;=oOOo..o@%%=%O&***###@+@++@@@..oo.+++@.X@;=%+",
"+@@@@@++=%@O&*&*$;;.XOO...o.@..++@o$**#.+++++++@@.oXo.++@XX%%@.@",
"++++++@@+%%+$*&&$%+XXOO@..oooo..o.@X#*O%+%%%++++@@.ooo..oO+%++.@",
"%++%%++++@oX$#&*#XXXXOOX.oXXoooo..oO$&O++%%%+@@+@..ooooX$@=%=%++",
"%%%%%%%+@oooX$&*#OXXXXXOOOOXo.....oXO&O+%%%%+@.@.oooo..$o===;%+%",
"%%%%%%%+@o.@@X#*#OoXOooXOOXoo....@.oX#$++%==%@........X$++%%%+++",
"%+%%%+%%@.@+@X$&#OoOOooooXoo.......oX#$+++=;=+@@@@@@@.O.%++@+++%",
"%+%%%%=%@.@@@X$&&X.XXXXXoXoo.......XO#$@++%=%++++@@@.$X++%+@+++=",
"++%%%==%@.@@.$#*#o..oXXXXXo....o...XO&#@+++%+++++@@o$.@@.+@.@@+%",
"%+%%===%@...O#&*&X..o.XXXXXXXo...@.oX&*X@@+%+@@@@@o$@;=++.o.@@+%",
"+%%+=;;=+...$##**X....oooXXOXX.@...oX#*&O.+++....O$.=%@+%+Xo.@+%",
"+%===;;%@@@X#&XO*O.......oXXXXo.....oO#*&$OOooX$$O+=%@@@+%@Oo.%%",
"++%===%+@@o$&*$$*$..o....oXXXXo.....oXO#****&&&$+=%++@.@+%@XXo@+"
};
