/* XPM */
static char *wall1726493726[] = {
/* columns rows colors chars-per-pixel */
"64 64 197 2 ",
"   c #3B4446",
".  c #35464B",
"X  c #3B464A",
"o  c #36494E",
"O  c #3C4B4D",
"+  c #3C4846",
"@  c #374C52",
"#  c #3C4D53",
"$  c #3B4E58",
"%  c #375256",
"&  c #3D5155",
"*  c #3D5359",
"=  c #3F5A61",
"-  c #424C4E",
";  c #494E4F",
":  c #47504F",
">  c #4C504F",
",  c #424E52",
"<  c #494C51",
"1  c #435254",
"2  c #495253",
"3  c #43545B",
"4  c #4A565B",
"5  c #45595E",
"6  c #4A5A5D",
"7  c #555958",
"8  c #68645B",
"9  c #445660",
"0  c #455B62",
"q  c #4B5D63",
"w  c #465F69",
"e  c #4C5E68",
"r  c #515D64",
"t  c #555F68",
"y  c #476067",
"u  c #4D6166",
"i  c #4C636A",
"p  c #4F686E",
"a  c #526266",
"s  c #52646B",
"d  c #59666B",
"f  c #54696E",
"g  c #5A6B6E",
"h  c #4D6671",
"j  c #4E6B72",
"k  c #546C73",
"l  c #5A6D73",
"z  c #566E78",
"x  c #5B6E79",
"c  c #556771",
"v  c #567075",
"b  c #5B7176",
"n  c #56727B",
"m  c #5B737A",
"M  c #5C797E",
"N  c #6A6E6C",
"B  c #696A63",
"V  c #706E6C",
"C  c #6D716E",
"Z  c #72736E",
"A  c #787469",
"S  c #676F71",
"D  c #6B6F71",
"F  c #627375",
"G  c #6D7373",
"H  c #6E7877",
"J  c #62757C",
"K  c #6D7579",
"L  c #63797D",
"P  c #6E7A7B",
"I  c #727474",
"U  c #787773",
"Y  c #757976",
"T  c #7A7A75",
"R  c #737679",
"E  c #727A7C",
"W  c #7B797A",
"Q  c #7E807F",
"!  c #5D7C83",
"~  c #5D7F88",
"^  c #6D7780",
"/  c #647C82",
"(  c #6A7D84",
")  c #627E89",
"_  c #657B87",
"`  c #747B81",
"'  c #7C7F84",
"]  c #5F8189",
"[  c #648285",
"{  c #6B8186",
"}  c #65848C",
"|  c #6A858C",
" . c #65888D",
".. c #6B8A8E",
"X. c #768384",
"o. c #7B8486",
"O. c #71858C",
"+. c #7D8689",
"@. c #72898E",
"#. c #7D898B",
"$. c #668690",
"%. c #698691",
"&. c #668A92",
"*. c #6C8C94",
"=. c #6D8E99",
"-. c #728E95",
";. c #7A8D93",
":. c #728E99",
">. c #788F9D",
",. c #6E9196",
"<. c #6E919A",
"1. c #729196",
"2. c #7A9296",
"3. c #74939B",
"4. c #7A959C",
"5. c #77989D",
"6. c #7C999D",
"7. c #7596A1",
"8. c #7A96A1",
"9. c #7798A1",
"0. c #7C9AA3",
"q. c #7E9EA9",
"w. c #7CA2AD",
"e. c #868684",
"r. c #82969B",
"t. c #82999E",
"y. c #8F9A96",
"u. c #959598",
"i. c #969B9A",
"p. c #9A9D9E",
"a. c #999693",
"s. c #A49E9D",
"d. c #97A09F",
"f. c #9AA09E",
"g. c #A3A29D",
"h. c #839CA3",
"j. c #8A9DA4",
"k. c #849EA9",
"l. c #8A9FA9",
"z. c #8195A0",
"x. c #9B9DA2",
"c. c #84A1A6",
"v. c #8AA1A6",
"b. c #85A2AC",
"n. c #8BA4AB",
"m. c #8DA9AD",
"M. c #9DA2A2",
"N. c #94A6AC",
"B. c #9AA5AC",
"V. c #92A9AD",
"C. c #85A6B2",
"Z. c #8CA6B1",
"A. c #85A8B2",
"S. c #8CAAB3",
"D. c #8DACB9",
"F. c #94A7B2",
"G. c #93ABB3",
"H. c #99AAB2",
"J. c #94AEB9",
"K. c #8DB2BB",
"L. c #92B1B6",
"P. c #9CB4B5",
"I. c #95B2BA",
"U. c #9AB3BC",
"Y. c #9CB9BF",
"T. c #A2A3A5",
"R. c #A3A5AA",
"E. c #A9A7AB",
"W. c #A6AAAC",
"Q. c #ABABAC",
"!. c #ACACA4",
"~. c #B1AEAE",
"^. c #B2B1AC",
"/. c #A4A7B0",
"(. c #ADADB1",
"). c #B1AEB1",
"_. c #A2B4BB",
"`. c #A2B9BE",
"'. c #ADB1B0",
"]. c #B4B7B6",
"[. c #B4B8B7",
"{. c #B9B9B7",
"}. c #B6BBBC",
"|. c #BABDBC",
" X c #B1B6B9",
".X c #BBC1BF",
"XX c #9DB6C0",
"oX c #9CBAC1",
"OX c #A4BAC6",
"+X c #A0B6C3",
"@X c #B5BFC1",
"#X c #BABEC0",
"$X c #B6C0C1",
"%X c #BCC2C2",
"&X c #BFC8C3",
"*X c #C0C2C3",
"=X c #C8C9C1",
/* pixels */
"a.s.a.y.i.x.u.u.u.u.y.y.a.i.p.x.x.d.p.f.p.p.p.p.x.x.B.B.M.M.M.M.p.i.p.p.f.f.f.f.M.M.M.M.p.p.p.M.p.p.d.M.x.T.T.R.R.R./.E.T.!.g.8 ",
"s.e.Y X.o.` ' ' ' o.+.+.e.+.+.+.o.o.o.+.o.o.+.+.#.' #.o.' o.` o.X.X.+.o.+.+.+.+.#.e.#.+.o.o.+.+.+.+.+.+.o.' e.+.+.#.` ' e.e..XB ",
"x.D 6 L F.F.x.B.F.B.F.N.B.B.B.B.B.F.B.F.B.B.B.N.H.F.H.F.;.^ d d X.r._._._._._.`._._._.U.Y._._._._._._._._._._._._._.z.^ , - .XB ",
"x.K L 2.J.J.J.F.n.Z.n.n.l.n.Z.n.Z.Z.Z.Z.n.n.n.F.Z.l.J.J.>.( 9 e :.k.+XY.XXI.P.U.I.I.J.I.I.I.U.U.U.U.U.I.U.U.U.U.XXJ.j.' X 2 %XI ",
"R.^ n.J.0.0.k.>.$.$.$.] } ) ) %.%.$.) ) ) } } } ) ) :.b.:._ 3 $ C.C.J.C.S.q.=.=.<.<.=.=.<.*.*.,.=.*.*.=.:.=.*.=.C.D.4.-.* 4 @XS ",
"/.^ n.I.8.0.h.=.] ] $. .%.%.%.%.$.$.$.$.$. .}  .&.&.:.k._ _ $ $ C.C.w.w.C.9.=.*.<.<.<.<.<.*.<.<.=.=.<.<.1.=.<.<.0.n.%./ # , %XR ",
"E.` N.n.} } ) ) ~ ] $. .%.%.) %.%.$.} | $.}  . .&.$.$.} e 9 # 5 k.k.=.=.=.=.=.<.,.,.<.,.*.&...,.%.$.%.*.<.<.,.,.:.-.k 0 , < %XD ",
"E.R N.n./ ..| } ] ]  .} ) ) %.%.} } } }  .}  . .$.$.} | c 5 X $ k.C.*.<.<.3.<.,.<.,.<.1.,.&...,.:.*.*.,.1.,.,.,.,.-.b q X 2 *XV ",
"Q.I N.v.[ { | %. . .] Q ] ]  . .} _ } [ | } } [ |  .} { s 6 , @ Z.b.=.3.:.*.1.*.1.1.,.*...1.1.,.1.1.1.&.,.1.3.1.*.1.k 6 - > |.V ",
"E.Y B.V.[ | | _ [  .] ] ] ] | [ } } } | ..[ |  .} | | ..s 3 O 1 l.k.:.=.=.*.4.*.&.*.,.1.,.1.1.,.*.,.1.2.1...&.&.5.2.b q - 2 |.Z ",
"E.K v.m.| %.) %. . . . .| } } } } } } ..| } [ }  .} ..| f 5 O 1 k.C.:.3.3.3.5.%.$.*.1.1.<.,.,.,.1.1.,.,.<.1.1.1.*...b i O 2 *XV ",
"x.K G.c.i p h ! &. . . .} } | %.%.$.}  .| | ....n p j k 0 5 o & n.q.j z k } :.*.=.=.1.,.*.*.,.1.=.1.1...1.,.~ j b n k q # 2 *XN ",
"/.` F.6.= 0 = z ....[  .| | } %.| ....| | { { @.n w = 0 5 6 % 3 n.z.h e w ! :.2.2.1.2.2.1.1.5.1.1.4.1.:.;.:./ w w e e e X , %XD ",
"(.S ;.{ 0 e 9 t f p f f c f s k j p f f c f c f i 0 0 0 6 5 O O J x a q i p b k k k k k k v k v b z k x x x c t s s s s , 2 $XD ",
"Q.E F F 3 5 6 q 5 5 * 5 5 3 3 3 5 5 5 5 4 3 4 3 1 5 6 q r 6 : - 6 q s a s a r q u 6 u u u u u 6 u u q u r e r r t e r 7 - 2 |.Z ",
"~.G 1 5 # # , X O + O O O O O & O O O @ O O # # # & O X @ + O X , O X # X # o & # @ O & O & O @ o # @ O X , $ $ , # - - - 2 {.Z ",
"Q.G 3 3 * * # 3 & & * # 5 @ 3 X O & 1 & & & 3 % % * * % % & & & $ $ * * * % * % * * * & @ O . 1 @ 0 % * * * # 3 $ 3 3 , X 2 .XC ",
"'.E { 0.V.J.S.m.V.V.G.G.m.@.L 1 & f | v.m.h.c.n.b.n.n.v.n.v.n.n.n.n.n.n.C.m.b.b.n.v.c.b 5 & O L @.n.n.m.n.J.J.F.F.F.B.N., 2 .XN ",
"W.H 6.m.b.S.S.m.m.m.n.J.I.5.X.O & { 4.F.m.S.c.b.b.b.C.C.b.b.b.k.n.n.b.b.k.b.C.b.c.b.V.L f & X @.h.I.U.I.S.F.F.Z.F.Z.F.H.o 2 %XC ",
"Q.Q P.Y.4.2.5.5.5.5.6.n.I.w.1.& % c.J.Z.b.K.0.,.:.=.=.<.1.:.-.-.:.:.-.*.=.=.:.:.*.c.L.r.@.& 3 N.J.L.J.J.k.5.7.8.7.>.>.;.O 2 .XC ",
"E.K `.+X8.8.4.3.4.5.4.b.A.5.-.@ * k.S.b.b.C.7.=.<.<.<.<.=.:.:.<.*.*.1.<.<.<.<.<.<.0.j...( o & H.J.m.C.J.k.7.3.7.0.6.t.;.1 2 .XC ",
").R _.+X>.8.0.6.6.4.5.5.5.%.{ % * c.b.,.:.=.=.<.<.<.<.<.<.=.<.1.$.&.<.3.<.<.<.=.5.*.-.s i & @ N.Z.4.7.8.8.7.9.7.5.5.6.2.o : .XC ",
"(.R _.OX>.>.1.5.4.4.8.7.0...( @ % A.c...,.*.7.=.&.*.,.<.<.<.,.,.&.<.<.<.&.&.&.=.*.:.4.k 0 # # F.F.7.4.:.4.7.9.<.9.5.6.2.O 1 .XN ",
"(.` _.OXz.4.%.-.4.4.8.4.8.*.( & % c.w.,.,.,.<.<. . .&.<.<.,.,.,.<.<.<.&.}  .$.*.1.3.-.b e # 5 n.J.:.8.8.7.7.3.$.5.5.6.1.& 1 .XG ",
"(.` _.+X>.8.:.2.5.4.4.4.9...[ & % b.w.1.%.,.&.,.&.*.,.,.,.1.,.,.,.<.*.*.*.%.&.1.-.2.2.k u % 3 B.Z.8.8.4.3.5.5.<.<.9.4.2.O 2 .XG ",
"W.P _.XX8.8.4.8.4.5.4.5.9.%.( @ % m.v...4.:.1.3.1.1.,.,.-.-.1.*.*.<.1.1.3.1.1.-.-.1.-.k e # # V.J.2.h.6.5.6.5.5.5.5.6.2.O 2 .XC ",
"W.P +XXX8.7.5.5.6.,.%.%.&. .[ @ @ n.c.p z z _ >.:.-.1.:.:.3.:.1.-.-.1.*.*.2.-.[ b v b s q o 1 H.l.J L M ..6.1.6.5.4.r.2.O 2 $XC ",
"W.P _.Y.0.8.5.5.5...}  . ...{ & 0 j.t.i w 0 _ >.:.>.:.:.>.:.>.2.3.;.2.2.@.2.:./ y 0 u u i @ 5 N.j.l k l { r.2.r.4.4.t.#.1 2 %XC ",
"'.P j.t.| | ..@.....| | } ../ # @ J J e e e l x x x x x x x x x l l x l l b b a i a a a a O O { ( l x g L P L / L J ( L - < %XI ",
"Q.Y O.;.| } } / Q Q / | [ | J 1 # q q a t t s q r r q q q q q u q 4 q q q q q u a a u u 6 , O d g l S g g s l d l g l d O 2 %XN ",
"^.I 4 3 o $ $ # @ @ % % # * ,   X O + O O X O O # O O # # O O O , # # , # O O O O O O O O O O # - # , O - O 1 # # O , # X 2 *XI ",
"~.I , 9 3 $ 3 # % % @ % * # , 4 , 1 , 1 1 # 1 & , * , & & - O O # # $ # 1 & & 3 * & & & & & * # 1 # & # 3 # # # 3 , , # - 2 |.N ",
").R ( -.Z.k.C.b.k.C.b.b.b.C.n.v.c.c.c.n.n.b.b.m.b.b.c.n.| x # # h ) 9.7.0.4.0.0.0.0.h.0.0.6.0.0.z.0.0.h.0.0.8.h.0.0.L f O 4 |.C ",
").E 4.b.D.C.S.b.b.q.C.C.C.b.c.b.b.b.b.b.k.k.k.w.A.w.w.C.@.J 3 $ ! $.q.q.w.0.5.0.8.0.7.9.0.8.0.0.9.8.7.9.9.7.0.9.0.0._ J O 2 .XS ",
").E J.Y.C.D.D.0.=.<.=.=.=.=.-.*.,.&.=.-.-.:.=.<.<.=.w.K.4.O.3 # 8.q.k.k.b.:.$.%.) %.) ) } %.) _ } } $.} } $.] } q.k.:.( O : %XG ",
").E +XoX0.k.k.5.<.=.=.=.=.=.,.,.,.<.1.-.:.*.*.*.<.<.q.Z.%.( 1 3 h.k.7.>.8.-.} %.%.%.%.%.%.) %.} $.$.$.$.$.&.&.} :.4.| x O 1 $XC ",
").P P.I.-.:.:.=.*.&.&.<.<.<.=.*.<.<.1.<.=.| $.$.=.<.=.<.v q O # >.8.%.%.=.%.} %.} } %.} _ ) } } } $.} } | $.%.| $.%.p 5 O 4 .XN ",
").E I.L.:.:.=.-.<.&.=.<.<.<.<.,.<.<.1.,.*.*.*.*.&.<.=.7.v q # 1 z.0.%.) ) %.%.) $.} %.%.} ) } } $.$.| } } } } } ) @.p 3 O 4 |.C ",
"^.E P.I.-.:.*.1.<.<.=.<.<.<.,.,.*.<.<.<.-.1.1.1.<.3.=.*.g q O & 8.0.} $.$.$.*.%.}  . .&. . . . .$. .} } [ ! / | } @.x 5 X ; |.C ",
"^.E P.I.=.1.1.,.,.,.=.=.<.*.*.,.<.<.1.*.1.,.:.:.:.*.-.3.b a O & h.8.} $.} $.$.}  .] ] ]  . . . . .) } | } ) } %.%._ s 9 + 4 *XN ",
"'.Y P.L.5.1.2.1.1.,.1.-.&.&.| 1.,.,.*.-.5...2.1.-.-.4.;.x q : & 8.4.%.%.} } %.}  .! M [ .. .[ } } ! } | | ..| | @.| s 6 O 7 }.D ",
"!.E P.G.p v v / 1.@.1.3.=.2...*.*.1.5.@.@.[ *.1.} k p x a a @ O h.-.p j h n | | } | }  .} | } } } / | { { | b i s c a 3 X 2 #XI ",
"E.E _.m.* y i M 5.1.:.3.3.2.-.2.:.2.-.1.-...-.2.M i w i u a X 1 t.:.* w 9 l | @.{ | { ..| @.@.[ | | | | { | b 0 q 0 e q X > #XN ",
"E.G r.1.p k i u v f l x k z v b x b k k v k f k c i q s s u X @ l l * e q q s a c a a f a s s s p s f i p c i 3 9 9 5 6 X 4 #XV ",
"s.E [ [ p i e s u u u i u y q y 6 u u u u y u u w u q e a r & O 1 q q q q 5 6 5 q q 6 q 5 3 5 5 3 0 9 9 0 5 0 5 u q 6 6 - 2 .XC ",
"E.I & * @ % @ @ O @ o @ @ o % : & % + & O o % % @ 3 # # & O @ . # o @ o o o @ @ o X o X , & # O # % @ @ # # # # & o @ . - > $XN ",
"T.N 3 3 $ 3 # 3 & 3 , 3 3 & & . O & & 1 1 & % & & 3 3 3 & @ 1 & $ & 3 3 1 3 1 & * 3 3 # 3 o o & @ 3 * $ 3 # * & & @ 3 2 + 2 %XC ",
"T.D ( :.n.l.n.v.j.n.l.n.c.{ k 1 3 m @.V.V.m.m.V.J.n.N.H.N.V.V.m.V.J.v.V.Z.n.G.V.V.V.n.@.L & & b } k.n.j.l.v.n.j.v.V.v.r.1 2 .XG ",
"x.K 2.b.k.C.k.b.w.c.b.S.S.*./ & % -.6.L.L.L.S.S.S.S.S.Z.F.S.m.G.S.S.S.S.S.S.S.Z.S.I.I.2.| % @ | 4.C.Z.S.A.A.b.b.b.b.n.t.1 1 .XC ",
"x.` J.I.7.=.=.=.<.,.&.w.K.0...% % m.I.L.L.Y.C.7.7.7.4.5.4.3.2.3.4.3.3.7.7.7.7.5.7.b.I.j.;.% 3 j.C.D.C.D.9.<.&.<.=.*.3.@.O 1 .XG ",
"p.K _.Y.&.=.<.,.<.<.<.0.A.*.L & * m.G.n.b.A.0.=.7.:.7.8.4.8.4.4.0.8.4.9.9.7.5.4.4.h.G.4.| # * j.S.w.q.C.9.<.<.5.1.:.-.{ & 1 .XG ",
"M.G _.U.&.5.<.,.] ..1.1.,.k u o * m.n.4.0.5.:.<.=.=.3.7.5.4.4.4.4.5.5.7.5.*.*.*.5.4.4.m x @ 3 j.k.<.*.3.*.<.<.*.=.:.*.{ O 2 .XC ",
"p.G `.U.*.:. .&...1.:.3.-.v i # * F.J.3.4.8.3.1.:.:.4.8.4.8.0.4.3.2.4.0.6.1.3.4.3.4.r.m c # 3 v.b.:.=.:.&.*.<...,.,.,.X.O > .XQ ",
"p.F P.P.:.:.] ..,.1.:.:.2.v q O # V.S.2.8.0.8.4.8.7.7.8.5.8.4.3.*.-.5.6.6.5.5.6.6.4.6.( l @ # j.k.=.-.1.&.} ,.<.1.1.1.@.& : .XZ ",
"E.G P.I.:.=.%.,...1.-.:.3.z q , 3 n.V.4.4.4.4.6.8.7.4.-.4.8.4.4.-.5.3.4.4.4.4.4.r.2.2.L l # # N.j.=.:.:.1. .*.<.,.,.1.@.O 2 .XZ ",
"T.K U.U.=.-.3.,.1.1.;.:.:.x q , & N.F.4.8.4.6.5.4.4.=...:.4.5.4.4.4.4.4.4.6.4.4.4.4.r.( l # # l.n.-.2.-.1.1.<.<.,.,.2.1.O 1 .XC ",
"R.K _.P.=.:.1...1.Q f n v i u O & G.v.b L [ | 5.2.5.5.1.4.2.5.4.4.4.6.4.4.r.4.{ L L / J l # $ N.h.h b j [ 3.*.=.<.,.:.@.# , *XI ",
"M.K _.I.-.5.1.-.&.Q u y y i t , & m.c.b k f { c.6.6.5.1.6.r.6.t.6.2.4.4.4.4.4.@.k l l l c # $ j.4.y y w M 3.3.:.*.1.4.@., 2 %XG ",
"W.H r.2.k x k v j v y u c s t X X Q ( g b b F F L F L Q L L L L / / / ( / / ( F F b F J l # # ^ J q f a k b l x v b b l X 4 #XG ",
"f.H ( / e e e q = y u a a a r - - g g g b g g g g l g g l g l l g f g l g g g d d g d g d , O q t q s q u 5 q 9 u 0 e q X , %XI ",
"^.G + & @ # , O - - - O X X - - X - + - +   , , - O O O , O - # # - O # , - - - O : O - , X O - # # X X < - < # # # , , - ; |.N ",
"!.T + 1 < - < < ; - < < 3 1 ; ; 2 2 , 2 4 2 < < : > 2 > , < < < 2 , 2 1 2 , 1 > : 2 : : < 2 2 - - 2 2 < < < - < - 2 2 , - 7 {.T ",
"!.=X&X&X@X@X|.].{.{.}.}..X$X}.{.[.}.}.}.}.[.}.}.}.}.}.}.}.#X}.}.}.}.|.}.}.|.}.{.].[..X}.|.|.}. X#X}. X}.|.|.|.|.#X#X X}.|.|.|.A ",
"A Y Q H W R U T U W W I P E I Y I R I D R Y I I I Y I I R I R R I R I G I Y Z I U C Y I G G I R G G Y Y V I I I I R G Y I Z Z B "
};
