/* XPM */
static char *way1726493726[] = {
/* columns rows colors chars-per-pixel */
"64 64 119 2 ",
"   c #1B2023",
".  c #1F2427",
"X  c #202528",
"o  c #212528",
"O  c #212629",
"+  c #222629",
"@  c #22272A",
"#  c #23272A",
"$  c #23282B",
"%  c #24282B",
"&  c #24292C",
"*  c #25292C",
"=  c #252A2D",
"-  c #262A2D",
";  c #262B2E",
":  c #272B2E",
">  c #272C2F",
",  c #282C2F",
"<  c #282D30",
"1  c #292D30",
"2  c #292E31",
"3  c #2A2E31",
"4  c #2A2F32",
"5  c #2B2F32",
"6  c #2B3033",
"7  c #2C3033",
"8  c #2C3134",
"9  c #2D3134",
"0  c #2D3235",
"q  c #2E3235",
"w  c #2E3336",
"e  c #2F3336",
"r  c #2F3437",
"t  c #303437",
"y  c #303538",
"u  c #313538",
"i  c #313639",
"p  c #323639",
"a  c #32373A",
"s  c #33373A",
"d  c #33383B",
"f  c #34383B",
"g  c #34393C",
"h  c #35393C",
"j  c #353A3D",
"k  c #363A3D",
"l  c #363B3E",
"z  c #373B3E",
"x  c #373C3F",
"c  c #383C3F",
"v  c #383D40",
"b  c #393D40",
"n  c #393E41",
"m  c #3A3E41",
"M  c #3A3F42",
"N  c #3B3F42",
"B  c #3B4043",
"V  c #3C4043",
"C  c #3C4144",
"Z  c #3D4144",
"A  c #3D4245",
"S  c #3E4245",
"D  c #3E4346",
"F  c #3F4346",
"G  c #3F4447",
"H  c #404447",
"J  c #404548",
"K  c #414548",
"L  c #414649",
"P  c #424649",
"I  c #42474A",
"U  c #43474A",
"Y  c #43484B",
"T  c #44484B",
"R  c #44494C",
"E  c #45494C",
"W  c #454A4D",
"Q  c #464A4D",
"!  c #464B4E",
"~  c #474B4E",
"^  c #474C4F",
"/  c #484C4F",
"(  c #484D50",
")  c #494D50",
"_  c #494E51",
"`  c #4A4E51",
"'  c #4A4F52",
"]  c #4B4F52",
"[  c #4B5053",
"{  c #4C5053",
"}  c #4C5154",
"|  c #4D5154",
" . c #4D5255",
".. c #4E5255",
"X. c #4E5356",
"o. c #4F5356",
"O. c #4F5457",
"+. c #505457",
"@. c #505558",
"#. c #515558",
"$. c #515659",
"%. c #525659",
"&. c #52575A",
"*. c #53585B",
"=. c #54585B",
"-. c #54595C",
";. c #55595C",
":. c #555A5D",
">. c #565A5D",
",. c #565B5E",
"<. c #575B5E",
"1. c #575C5F",
"2. c #585C5F",
"3. c #585D60",
"4. c #595D60",
"5. c #595E61",
"6. c #5A5F62",
"7. c #5D6164",
"8. c #5D6265",
/* pixels */
"[  . . .[ _ R G C [ g w d x C C f t z E H H U L H L G n B G L C E L U U U U H N 3 , 3 , 3 f H ` { E L _ _ R L R ^ ^ L n B C L ^ ",
"_ [  . ._ R L G G C w n  .$.*.*.>.H t N ~ U H C H Z B n B L G G H L U H H N H U t 7 N z N E { { _ ~ R _ _ R Y Y Y R Y G C B C C ",
"n C L L C C C L C i 6 C $.$._ _ U ` U f f c Z L C n g n C C C L U H H H U E U H U 3 t z H ~ ~ ` [  . ._ Y L L C G L Y L C B n g ",
"g g n n d i g x i i x C L R C B n H U N t t f N C B n n C C G C L L L H H Z H H ~ , w i t z N H L E E L L R L G G G Y L C C C n ",
"n i g g d g n g w n L L C C C B H H H N g g g 2 n C L L G L G L H H L L H H E ~ t 3 L Z , f n n x n n C C L L L G L R Y L L Y C ",
"n i g n n L Y x i C L L L B C C N C U z w c L i g C L L L G L L U L L E U H N z ; 2 Z H w f C n B n n C C G C B G Y R R L R R C ",
"C n n C C R L 6 n L C L ^ Y R R C z g g i g n G C C C L L L C C H L L n i 7 3 t x w 3 g 3 i C C B n C C L L G L C Y L L R R Y L ",
"C n C L L _ L ; C _ C C R Y L n H L n t f n n n R H C L R Y L L Z f 6 > 6 n / =./ H w w O t R C L L L C C C C B B L L C Y ^ R L ",
"B n R G L  .2 i R R Y C C L L n B L n C g n L L  .R i Z H f t , ; r n L  .*.[ L L L L g ; w n Y ^ C R L B L C B B C C C L R ^ L ",
"B i L ^  .n 2 x R G Y R R L G C C C C Y R L R ^ R [ R , 7 2 3 t /  .$.*.*.$. .Y Y L ^ L g 2 2 L R L L L L L L C C C C B L R ^ R ",
"L d C  . .i 2 n C B L  . ._ [ $.[ L R _  .R ^  . ./ ~ f * z E +. .$.*. .[  .$.O.^ L G G L i O g R _ L L R R L C L C C L R R R R ",
"C x L C g > 2 x L C G C C Y R Y _ L _ _ $.[ _  .$.R f f , g ~ ` R ^ _ R R R R _ 3.$.Y C Y n ; 2 B R L Y R Y ^ R L L L L ^ ^ R Y ",
"n g G i ; i i g R Y C g g n B g n C _  . .$.R R ^ Y f 2 U U R +.^ R ^  . .R G G -.O.L L C n i ; w C G R ^ L L R L G C G R R R Y ",
"C i i i i  .L g R L C B n B C B g C R  ._ $._ E _ d t w E ~ t Z ^ L L _  ._ Y R L n g C C g x ; 2 i C R R L L R R R L L L L L L ",
"n 2 2 i G *. .i Y C C G C n n n x B C R { $.+.~ N O , n N _ g C  .R Y Y L L L L _ i x L L n d r 2 ; i C L L L R ^ ^ R Y L L C C ",
"w w g C R _ $.B B B C G C C C B G C C L $.[ _ n % 3 z t z z n g [  .[ R L Y L L Y i C C x n r L g ; w i g g d n n L Y Y L L L B ",
"r n L L B x B L d L B n g d G R G x B n B R B > & 6 v R ^ G g i Y _ _ R L R C R G g C C d g g G R n w 2 i g i 6 r i g g x x i 2 ",
"G L L L C C C C n r g [ L n R R C L B d n r   2 L C C R [ [ L v B _  .[ _ R R n C g C C n x g Y  .[ L i 6 w g x g w i g i w w g ",
"_ R L L L Y G C L 2 _  .R $.^ Y Y L C g w > i L G L G Y R R L B i _ $. ._ R $.Y n g n C R L x _ [  . .R d > 2 i i w 2 6 6 r x L ",
"Y L C C Y R Y C Y i i R  ._ [ L R C R C $ i R L G R  .O.O.[ R L w C [  . ._ -._ g n L R R Y L  . .[  .$.^ g w 2 2 2 2 w g G R Y ",
"L L G G L R Y G G i 6 n Y _ O.R L ( G y w L  .R  .$.3.3.3.*. .R n i C _ -.-.-.$.i g R ^ Y R _  ._ O.$._ R R C 2 ; 6 w C R R L L ",
"Y L L G G Y ^ R n i  .B w L C L G L d 6 n  .7.8.@.$.-.$.} _ _ [ G > ; i n g i n r d L ^ L R $.$. .$.-._ G C n r 2 n i C L R Y L ",
"L L C C L R _ R r C _ [ g O w g x d w n R [ *.$.}  . .} R Y R [  .n ; w w O O 2 i g C R R L  .-.$.O.-.$.G x g i w L g C B R R L ",
"L L L C G R L L w  .[ _ _ g w i i d w B R Y ( [ @.[ [ O.$._ L G _ G 2 n Y C B n x C C L R B C  ._ ^ _ R n g g 2 r C g ^ R L C L ",
"L Y L C G R  .g n  .R _ _ ^ C 2 w w > G R R  .O.$.O.} @.$.[ L L R L g w d n C n i n i r g i d d i i i i g g g 2 g i n R L ^ L G ",
"L L L L L L G i R _ R [  .Y Y G ; & y Y R  .$.$.$.$.@. .} ( R  . .Y d > ; 2 w i w i w i i w i g d r g g i r 6 6 d n d Y Y L C L ",
"L C B G L L n g [ Y L _ ^ L R _ g < n C v [ [  .$.$. . . ._ R ^ R B g d n C g i i 6 $ > 6 w i i g i i w 2 ; r x *.$.n L R G L Y ",
"^ R R G i i w C R C Y R L L R ^ n 6 n n x _ } -.$.$. . .} ( Y G C ^ $.1.$. .$.$.$. .R C w $ ; ; ; w > 6 2 r ^ O._ _ G n ^ C _ L ",
"_ G C n i n i C L L R Y L R R L i r n C ( } _ *.-.-.$._ R G R [ 1.$.[ [ [ ^ L C L _ *.1.*. .Y n $ 2 2 2 2 C _ _ _ [ O.L B L Y B ",
"x d g C Y ^ n w L L Y R Y Y R L 8 g n G  .^ R _ *.$._ ^ Y L R  .R R R _ _ R R _  .R R _ $.3.$._ L g G i n *._  .[  ._ R g _ R L ",
"d C ^ R Y L C 2 B R L Y Y C Y C 8 y g n R ^ ^ R ^ Y L R ^ L L _ [ R R  .$. .R Y _ ^ $.$.*._ n C R 2 r r C $.^ $. . .R R B g d w ",
"R ^ R B G R _ w i R L L L L Y n i r n g C ( _ R C L Y ^ R C G  ._ _ _  .^ R R  . ._  .$.1. .L [ R w O n _ R _ _  .$.[ L Y ; g L ",
"~ U U U U ~ E z 3 U H H P N H z , , t z c R R Y Y 2 g R R Y G R L ^ _ _ Y R ^ ^ $. .*.3.*.R R _ R 2 6 R L G L R O.-. .R L v R Y ",
"U H H U U ~ ~ H t z Z H N N N N f , t 3 i H L / x i i C ^ L L R _  .[ R Y R ^ ^  .$.3.7. .R R [ R 6 w R C L R ^ ^ _ R R G x R C ",
"U H P U U E E P 3 , c H H H f z H H t 2 g z L G n ^ n C _ _ _  ._ [ _ R R ^ _ _ R $.3.*.R L ( _ G > w L G Y ^ ^ _ R _ [ Y B ^ Y ",
"U U H P U Q H c , , 3 f H H k c H ~ g 3 t t x w R $.L n R R _ [ ^ R R R ^ _ _ ^ R [ O._ Y ^ _ _ n ; i R L R R ^ [ _ _ } R g C L ",
"U U U H ~ ~ H t t f 3 - f c z U U U ~ f 2 t ; g $.[ ^ C L _ R R R ^ R ^ ^ _ _ R _ _ R R Y _  .[ n O g R Y Y R _ [ O.[ ^ _ d d Y ",
"U E U H U P f , f H f , 3 t f H ` / +.E 7 3 , / $._ _ Y L  .^ R R R R ^ ^ _ [  . .R R R Y Y ^ [ B $ x R L Y R } } $.} ^  .g w L ",
"U U U H H f 3 , t Z U f 3 3 , 3 N U H H 3 * d Y [ _ _ G C R R L ^ R _ R _ _  .*. ._ ^ R L C R _ B O B R R R [ O.}  .[ _ $.g > g ",
"U U U H H t 3 p , 3 U N 7 f , * , , f , ; w x g  .-.^ C C C L C ^ _ _ _ _ _ [ $. ._ _ ^ L L L R v ; L R R } O.O.*.O.O.@.$.n > 8 ",
"z Z U N t 7 Z / N , c 3 N H t t t 3 3 7 , z f g _ 1.G C n B C  . .R O._ L _ R _ ^  .[ ^ R L L C i 2 c { $. .+.+.$.O.$.$. .C 2 w ",
"3 z Z z 7 f H U ~ U * f z ~ H f N c 3 % , N t f C _ L n d i x  . .G G C L _ _ ^ [ Y R _ L G R n f w i C _  .+.+.-.$.$.-.{ f ; w ",
"7 f f t t H H N U =.U , E +.N U { z 3 3 z C g c g B G g d d g G Y n n C R R ^ _ R ^  . .G x n i i 2 , f _ >.=.+.$.+.+.3.` t ; w ",
"t f t 3 f U U Z H ~ ~ f 7 z H #.=.t 3 z i i g g w n L Y L G n w g n x L ^ R R _ _ _ L ^ _ n w 2 , 7 7 3 i N ~ =.2.3.=.=.U t 2 O ",
", 3 7 t N U U H U H H H c f N =.H t t i , w n g i C C [ L L C d g n x C R _ _ R _ R C R R i w n U Z t , , , t Z { =.{ H f f z , ",
", , - t U ~ P Z U ~ H H 7.` t z t g z z z 7 i z g x i  .[ R G n i g G R R _ _ ^ L R _ C w 2 C _ E ~ ~ C f , , 3 3 N c t t N U z ",
"7 3 - 3 H ~ H H U ~ t ` ~ ` ~ , z H H H H 3 3 i w w w ^ $.$.R C r i Y ^ _ _ ^ ^ R R B w w n _ Y H H L U U H z , , 3 3 3 g H z t ",
"f N f 3 t z H ` ~ p U H U R ` ~ N E ~ H N n R c w 2 O O i R [  .C w n L R  .^ _ R L 2 w C R L R U U L N N ~ ` U N 3 , 7 H H 7 3 ",
"U _ +.L 2 O r G w R +.U R ` ~ ` L n i w C _ -.1.3._ g 6 ; ; d R C 2 n G [ _ [ _ n i i C ^ R Y _ L L U H C R _ R R _ C i 6 i C L ",
" .+.=.-. .C w . i G R _ ` R U / ^ 2 > G  .G x C R O.-.$.B 2 $ ; 2 2 C C Y R _ G w B R _ R L Y R U L H L L ^ _ L R _ R i g  ._ $.",
" .R R _  .$.^ C d w t C ` ` ~ U w w G $.^ n n Y ^ L Y  .-.$.B 2 2 2 i i d B n 2 g R _ ^ Y R R Y R L C L ^ _ _ R R R R n _ 3. .$.",
"R E L L L _ O.$._ g 7 7 f c z t 2 ^ $. .C C B Y L L Y R _ _  . .x w > ; 2 r g d _ ^ R R ^ _ _ R R L C L _ _ R _ ^ L n _ -. ._ ^ ",
"_ R R _ R R _ R $.{ / Z 7 3 3 3 n -.*.R C B x R _ L G L R R R _  ._ C x ; O r L _ ^ _ _ _ R ^ _ R R L C R R R  ._ C n  . .L _ R ",
"_ _ ^ / _ _ _ R R ~ =.{ c 7 7 f d [ _ L L n g  .Y G L R Y C G Y C R ^ C w 2 C O.R [  ._ R _ _ R / R Y G C L Y ^ L B R  .R ^ _ ^ ",
"_ _ _  ._ _ _ R _ L H Z f t 7 t i B C x C C x n R L B C L L G L G L R B n 2 C R _  ._ R R _ _ R R R Y L L L L C n Y  . . . .R ^ ",
" .[ _ [ _ [ [ _ _ U Z H H z t , i x L B G G L n n n B C L Y Y L ^ Y L n n w C  ._ _  . ._ R R ^ R L L L L R Y g C -._  .-._ [ [ ",
" .[ [ _ _ [ _ _ ~ L U / ~ H f 3 i C L B C L L G C B C L L Y Y Y R R L L B i g  ._ _  .O._ R R R L L R L Y R G g  ._ _ _  ._ R  .",
"_ _ _ _ _ _ _ [ _ L ~ ` ~ L f w w C L n C G G L L G G L Y Y Y R R R L G C d g _ ^ ^  . ._ _ R L R _ ^ L _ R n R _ _ _ _ _ ^ _ _ ",
"_ _ _ [ [ _ [  .E L R ~ ~ H z t w C R C C L G L G L G L Y Y Y Y R R L G G i g _ ^ ^ [  . ._ _ ^ _ L Y _ Y n n _ _ [ _ R R _ _  .",
"_ [  ._ [  . . .R R R _ U c f , i L R L L L C C C C L L Y Y Y Y L R L L C w r _ ^ _ _ R _ ^ _ _ R ^ [ G g L _ R R _ R R ^ _ _ _ ",
"_ _ _ _  . .O. .R ~ U U N t 3 ; 6 G R L L L G C C C C L L L L R L _ R L B w 2 B R _ _ _ ^ R R ^ _ _ C i R 1. ._ ^ R L L ^ _ R [ ",
"_ _ [ _ O.$.$. .U ~ U H z 7 f t 2 C ^ Y L L L L Y G C B C C L R ^ R R L C i ; 2 n R _ _ [ _ L R Y g i R -. .R [ [ ^ C G Y R _  .",
"_ _  .[ $.$.O.{ R { U H k t Z H ; B R L L R L R Y L C C C C L R R R Y Y L n r > w g B n L G B C i n  .$.Y L R ^ [ _ R L L R _  .",
"R _  .[ _  ._ R E _ H z 3 , z c ; n R L L Y L L L G G G C C L Y L L R R L C C i ; 6 2 ; 6 w 6 i _ $. .R _ [ Y ^ R  .R G C Y R R "
};
