/* XPM */
static char *Design_sem_nome__1_1726493726[] = {
/* columns rows colors chars-per-pixel */
"64 64 38 1 ",
"  c #D3A15B",
". c #3F4447",
"X c #414649",
"o c #43484B",
"O c #3E4245",
"+ c #454A4D",
"@ c #D6A35C",
"# c #3C4043",
"$ c #393E40",
"% c #494E51",
"& c #32373A",
"* c #484C4F",
"= c #2F3336",
"- c #363A3D",
"; c #4C5154",
": c #2C3032",
"> c white",
", c #292D2F",
"< c #C69755",
"1 c #997849",
"2 c #505457",
"3 c #CD9C58",
"4 c #AA834C",
"5 c #876B42",
"6 c #B98E50",
"7 c #524A3D",
"8 c #735D3D",
"9 c #62533C",
"0 c #46433B",
"q c #89775D",
"w c #F6F7F7",
"e c #C0C0BF",
"r c #8D8375",
"t c #968F85",
"y c #AEADAB",
"u c #E6E7E8",
"i c #101010",
"p c #D3D4D3",
/* pixels */
"%;;2;*+.Xo$=-#O#$:$XX.X...OO#O...XXXX.O$:,:,:-X%%+o**+oo+*o$#OO+",
"*;;;+oo..$&-%;222o&#XX..OO$$#O...XXXXX..-,-&#o%%%+**+oXXXooO$##O",
"##XX#$OX#&&.;2;++oX$&#OO##--#OO.XX..XX.X.:=$#o+%;;;+oXX..XoX##$$",
"---$--&-&=$$ooO#O..O&=-$$$#O..O..X..XXXXX==&=-#..oo..XXX..oX..#$",
"-&&-&-$-=$.XO#$#O..$&$-=#O..XX...oX...XX-:#$=&$$$$#O.XX...XXXX.O",
"#&-$$#.-&..XX$#O#OO$=-#--...O#0000#O...-,:$.:&$$$$$#O....oXoo+X.",
"#-##OoX=-oO.++X.O$$&&$$#O$#7814664187=:&$=:-=&O####OO.OOOXooo+oX",
"#$..X%#:OX..XX.OO#$&&$##O71< @@ @@@ <57++O&,,=O....O.O###O...+oX",
"#$XXo*&&XXX.O..##O##-##05<@          @<50..&,:#XoXXX..O##O##.++o",
"#-X+%O,$X.o+XXX.O.OX+.74                47OO-:=OooXXXX.OOOOO.o+o",
"O-.%%&:$...*%%%;%Xo%o8<@  @@@      @@@  @69#.&,&ooXooooX....o++X",
"#$#.&,:$O...OXoo%.%+8<@  6414<@  @<4146  @<8#-,:#XXX++oXX.O.o++X",
"#$O&:-&-XXO$--$$$.o83  <1teeyq4  4qyeet1<  38-:,=OXXooooX...o+oX",
"#=&=-+X-o.#$$#$$-$83  3qe>>>>ur66tu>>>>eq3  <9&,,&#+o.Xo+oXXXXXX",
"-::-.;;-.#OO##$$&9<@ @4y>>>>>>uqqu>>>>>>y4@ @<7=,,&#X..+**oXXX..",
"==-Oo%;###OO####06@   qu>>pew>>tt>>wep>>uq   @67-::=---$#.XXXX.$",
"=$.X#$#O-O$$--.01@   3rw>p=ir>>yy>>ri=p>wr3   @10$=:&&&&&&&-$$&=",
".XX.###.$-$oX#O5     <rw>yii2w>ee>w2iiy>wr<     5oX&:=&&&&&-&::&",
"+X.OXXOOO&.*%*9<     3rw>uq*e>>yy>>e*qu>wq3     <9*o-:=&===::=$X",
"oX.Oo+.OX--+%74@      1p>>ww>>wrr>>>ww>>p1      @47;+$=::,,=$.oX",
"oXX.X+o.O&=$O5       @6tw>>>>>e11e>>>>>wt6       @5+oX$:,=,#XXoX",
"XXX.Oo+o$-%#73         4tu>>weq<<qew>>ut4         <9$#$=:$&#XooX",
"X..O.++o&.;o4@          4qrtr1<  <1rtrq4          @4$$-==#-OXXoX",
"X..O.oo.-%o8      33    @ <<3    @ <<< @            8-&:&#$XoX..",
"XXX.Xo+$#*76@    @11@                              @60=:&$$oooX.",
"XX...oX&oX5      @84@                                5=:-$-ooXXX",
"XX....$-+7<      386                                 <0$;;#.oXXX",
"XoX#--=..1@      39<                                  1o;*o#oXXX",
"oX#$-$&#9<       39<                                  <9*%%.Ooo.",
"$&$XX+$=1@       @81@@@                               @1o;%o$XoO",
"-.oX.o.0<        @6951584@                             <7;%o#$$&",
"ooX.X+X5@         @615143                              @5%;o.:-.",
"oXXXo+06@           @@@@                               @6*;oX-XX",
"oXXXoX93                                                39+o.$X.",
"o..Xo.5@                                                @5X*+$XX",
"oX..oO4@                                                 4X**-.X",
"XoX.o76                                                  67%%&&X",
"XXX..73                                                 @<9%%-=.",
"XXX.O93                                                  39%%$,-",
"XX..$93                                                   9;2#,=",
"-..#&73                                                  3922#::",
"=-#&=0<                                                  <92;-,=",
"=&&&=$4@                                                @4*2;&,:",
"====-O5                                                  5;2o=,,",
",::=Oo76@                                              @67%O&&-,",
",,,=.o#8                                                8--&&#.$",
":,,=OX.O5                                              5:,::-O-=",
"-$-:=$X+053@                                        @350$=,:#$==",
"+*;.=,&$&$86 @                                    @ 68.++o.==&#X",
";222%#:,&O.756 @                                @ 657X++o++&$%;;",
";**%;2*$&=&OX781< @@@                      @@@ <180#**++oX.$%222",
"+ooXo*2;+#&:&$&=08546<3 @@@@@@@@@@@@@@@@ 3<64587OO.Xo%**+oO+2;;%",
"*+++++**;;+#=:::-;%#079885111444444111558977XX+++oX..o%%+OO;%+o+",
"%***%*++*%;*-:==-;*.O$$X.##$$O..OO.-=:-++*%;%***++X.X.XoX$*%%*o+",
"%%*%;%%**+XO-=::&#OOO#$OoXO.XXXXXoX#-:#%%%%%*++*+ooX.XX.$*;;;%**",
";%%%%%%*+X..O-=,&#OOOOO$$$#..XXXooX#$=#%%;%%*+o+XXXXXXo-X;;;2;%%",
";%%%%%%%+Xo++O&:&#.O#XX.#$O.XXooo+o.#&$%*;;;%+ooXXooooO$%*%;;**%",
"%%%%%%;%+o+*+.-:=#X#$....O.XooooooX.#&-***;2;*+++++++o$o%%*+***%",
"%%%;;;;;+X+++.-:=OX.O.O....Xooooooo.#&-+**%;;****+++o$O**;*+***;",
"%%;;%;;;+o++X-=:&.oX..O.OO.oooXXooo.#=&+*%%%%*%%*++X$X++o*+o++%;",
"%%%%;2;;+ooo$==,=.ooXX.OOOOO..Xoo+o.#=:#++*%%+++++.-+2;%*XXo++*%",
"*%%%222;*ooX-&&::.oXXXXXX.O#OOo+oooXO&,:$o***oooo$-o;;+*%*O.o+*%",
"*%;;222%+++O&=##:#ooXoooX..OOO.ooooX.#&,=$##X..$-#%;%+++%%+#Xo%%",
"*%;2;;%*++X-=,-$,-oXXoXXXX.OOO.oXoooXO#&,:,:=::-*;%%*+o+%%+OO.+*"
};
